<?xml version="1.0" standalone="no"?>
<!DOCTYPE svg PUBLIC "-//W3C//DTD SVG 20010904//EN"
 "http://www.w3.org/TR/2001/REC-SVG-20010904/DTD/svg10.dtd">
<svg version="1.0" xmlns="http://www.w3.org/2000/svg"
 width="1171.000000pt" height="952.000000pt" viewBox="0 0 1171.000000 952.000000"
 preserveAspectRatio="xMidYMid meet">

<g transform="translate(0.000000,952.000000) scale(0.100000,-0.100000)"
fill="#000000" stroke="none">
<path d="M0 8820 l0 -700 5855 0 5855 0 0 700 0 700 -5855 0 -5855 0 0 -700z
m3020 66 c0 -8 -7 -16 -15 -20 -8 -3 -15 -10 -15 -16 0 -5 7 -10 15 -10 8 0
15 -7 15 -15 0 -8 -7 -15 -15 -15 -11 0 -15 -12 -15 -45 0 -38 -3 -45 -20 -45
-17 0 -20 7 -20 45 0 25 -4 45 -10 45 -5 0 -10 7 -10 15 0 8 5 15 10 15 6 0
10 8 10 18 0 10 5 23 12 30 17 17 58 15 58 -2z m-346 -18 c9 -12 16 -28 16
-35 0 -22 -39 -53 -65 -53 -21 0 -25 -5 -25 -30 0 -23 -4 -30 -20 -30 -18 0
-20 7 -20 85 l0 85 49 0 c40 0 53 -4 65 -22z m4096 -48 l0 -60 -34 0 c-44 0
-63 22 -48 55 7 15 20 25 32 25 13 0 20 7 20 20 0 11 7 20 15 20 12 0 15 -13
15 -60z m1580 -1 l0 -60 -37 3 c-31 2 -39 7 -41 26 -4 28 14 52 39 52 12 0 19
7 19 20 0 11 5 20 10 20 6 0 10 -27 10 -61z m1740 1 c0 -33 -4 -60 -10 -60 -6
0 -10 27 -10 60 0 33 4 60 10 60 6 0 10 -27 10 -60z m-3583 34 c3 -8 1 -20 -5
-26 -8 -8 -7 -19 4 -39 19 -37 2 -38 -25 -1 l-20 27 -1 -27 c0 -18 -5 -28 -15
-28 -12 0 -15 13 -15 55 l0 55 35 0 c23 0 38 -6 42 -16z m1585 -31 c3 -40 6
-48 23 -48 17 0 20 8 23 48 4 59 22 62 22 4 0 -47 -13 -67 -45 -67 -32 0 -45
20 -45 67 0 58 18 55 22 -4z m1866 35 c17 -17 15 -64 -4 -82 -8 -9 -29 -16
-45 -16 -29 0 -29 1 -29 55 l0 55 33 0 c18 0 38 -5 45 -12z m-1482 -13 c9 -8
11 -15 5 -15 -15 0 -14 -43 2 -59 10 -10 8 -12 -8 -9 -14 2 -22 14 -25 38 -6
34 -3 60 7 60 2 0 11 -7 19 -15z m1750 0 c9 -8 11 -15 5 -15 -15 0 -14 -57 2
-63 6 -3 2 -6 -10 -6 -20 -1 -23 4 -23 34 0 19 -4 35 -10 35 -5 0 -10 -7 -10
-15 0 -10 -10 -15 -30 -15 -23 0 -28 -4 -23 -16 4 -11 13 -14 30 -9 16 4 22 2
18 -5 -11 -18 -54 -11 -65 10 -18 34 4 61 47 58 22 -1 38 3 41 10 5 16 10 15
28 -3z m-7436 -19 c0 -7 -9 -16 -20 -19 -16 -4 -20 -14 -20 -46 0 -37 -2 -41
-25 -41 -24 0 -25 3 -25 60 l0 60 45 0 c32 0 45 -4 45 -14z m111 4 c24 -13 26
-72 3 -94 -20 -21 -73 -20 -96 1 -22 20 -23 61 -1 85 18 20 64 24 94 8z m231
-9 c14 -19 14 -19 26 0 17 27 85 23 90 -4 3 -15 -1 -17 -22 -11 -33 8 -34 -4
-1 -16 28 -11 33 -41 11 -59 -22 -18 -80 -10 -84 11 -3 15 2 17 30 12 l33 -6
-30 20 c-16 10 -31 15 -33 10 -2 -4 -22 -8 -43 -8 -26 0 -38 -4 -34 -11 4 -6
19 -7 37 -4 25 6 29 4 26 -12 -2 -13 -14 -19 -45 -21 -35 -3 -44 1 -58 21 -18
29 -12 72 14 87 27 16 69 11 83 -9z m218 -1 c0 -17 -5 -19 -27 -14 l-28 6 30
-19 30 -20 11 27 c13 29 32 40 72 40 53 0 78 -52 46 -98 -19 -28 -76 -30 -103
-3 -18 18 -19 18 -35 0 -10 -12 -29 -19 -51 -19 -28 0 -35 4 -35 20 0 17 5 19
25 14 14 -3 25 -3 25 0 0 4 -11 11 -25 16 -49 18 -25 70 32 70 26 0 33 -4 33
-20z m250 5 c0 -7 -9 -15 -20 -18 -16 -4 -20 -14 -20 -46 0 -34 -3 -41 -20
-41 -18 0 -20 7 -20 59 l0 60 40 -1 c25 0 40 -5 40 -13z m114 -7 c26 -37 20
-48 -25 -48 -27 0 -38 -4 -33 -11 4 -6 19 -9 36 -5 24 5 29 3 26 -12 -7 -35
-93 -26 -107 11 -9 24 3 67 22 79 24 15 66 8 81 -14z m114 -1 c3 -15 -1 -17
-22 -11 -33 8 -34 -4 -1 -16 34 -13 35 -57 1 -66 -38 -9 -70 -1 -74 19 -3 16
0 18 28 12 23 -5 30 -4 26 4 -4 6 -14 11 -21 11 -8 0 -19 9 -25 19 -7 15 -6
24 6 36 22 22 78 16 82 -8z m2765 3 c14 -20 57 -18 57 2 0 6 -9 8 -20 5 -11
-3 -20 -1 -20 5 0 5 12 8 28 6 23 -3 27 -8 30 -40 3 -37 2 -38 -28 -38 -23 0
-33 5 -37 20 -4 14 -14 20 -35 20 -19 0 -28 -4 -25 -12 2 -7 14 -13 26 -12 11
0 21 -3 21 -8 0 -5 -15 -8 -32 -6 -26 2 -34 8 -36 26 -7 47 44 70 71 32z
m1665 -8 c4 -28 -14 -52 -39 -52 -12 0 -19 -7 -19 -20 0 -11 -4 -20 -10 -20
-6 0 -10 27 -10 61 l0 60 38 -3 c30 -2 38 -7 40 -26z m170 -15 c3 -38 3 -38
-30 -35 -42 4 -51 34 -14 44 14 3 26 11 26 16 0 6 -9 8 -20 5 -11 -3 -20 -1
-20 5 0 5 12 8 28 6 23 -3 27 -8 30 -41z m140 31 c20 -20 14 -28 -19 -28 -20
0 -29 -4 -26 -12 2 -7 14 -13 26 -12 11 0 21 -3 21 -8 0 -5 -15 -8 -32 -6 -26
2 -34 8 -36 26 -6 42 37 69 66 40z m1490 -10 c3 -14 -3 -18 -27 -18 -24 0 -29
-4 -24 -16 3 -9 13 -14 24 -11 11 3 19 1 19 -4 0 -13 -44 -11 -58 3 -16 16
-15 41 0 56 18 18 62 11 66 -10z m260 0 c3 -14 -3 -18 -27 -18 -24 0 -29 -4
-24 -16 3 -9 13 -14 24 -11 11 3 19 1 19 -4 0 -13 -44 -11 -58 3 -16 16 -15
41 0 56 18 18 62 11 66 -10z"/>
<path d="M2600 8835 c0 -20 4 -26 18 -23 9 2 17 12 17 23 0 11 -8 21 -17 23
-14 3 -18 -3 -18 -23z"/>
<path d="M6706 8815 c-8 -21 3 -45 20 -45 9 0 14 11 14 30 0 32 -23 42 -34 15z"/>
<path d="M8294 8816 c-8 -22 3 -49 19 -43 6 2 12 14 12 27 0 27 -22 39 -31 16z"/>
<path d="M6460 8840 c0 -13 5 -20 13 -17 6 2 12 10 12 17 0 7 -6 15 -12 18 -8
2 -13 -5 -13 -18z"/>
<path d="M9900 8815 c0 -46 13 -58 38 -33 25 25 8 78 -25 78 -9 0 -13 -15 -13
-45z"/>
<path d="M10130 8820 c0 -5 7 -10 16 -10 8 0 12 5 9 10 -3 6 -10 10 -16 10 -5
0 -9 -4 -9 -10z"/>
<path d="M2840 8795 c-16 -19 -5 -47 17 -43 11 2 18 12 18 27 0 29 -17 37 -35
16z"/>
<path d="M3075 8800 c-3 -5 1 -10 9 -10 9 0 16 5 16 10 0 6 -4 10 -9 10 -6 0
-13 -4 -16 -10z"/>
<path d="M3414 8796 c-8 -22 3 -49 19 -43 6 2 12 14 12 27 0 27 -22 39 -31 16z"/>
<path d="M3655 8800 c-3 -5 3 -10 15 -10 12 0 18 5 15 10 -3 6 -10 10 -15 10
-5 0 -12 -4 -15 -10z"/>
<path d="M6545 8820 c-3 -5 1 -10 9 -10 9 0 16 5 16 10 0 6 -4 10 -9 10 -6 0
-13 -4 -16 -10z"/>
<path d="M6625 8789 c-4 -6 -5 -13 -2 -16 7 -7 27 6 27 18 0 12 -17 12 -25 -2z"/>
<path d="M8204 8816 c-8 -22 3 -49 19 -43 6 2 12 14 12 27 0 27 -22 39 -31 16z"/>
<path d="M8385 8789 c-4 -6 -5 -13 -2 -16 7 -7 27 6 27 18 0 12 -17 12 -25 -2z"/>
<path d="M8525 8820 c-3 -5 1 -10 9 -10 9 0 16 5 16 10 0 6 -4 10 -9 10 -6 0
-13 -4 -16 -10z"/>
<path d="M10005 8820 c-3 -5 3 -10 15 -10 12 0 18 5 15 10 -3 6 -10 10 -15 10
-5 0 -12 -4 -15 -10z"/>
<path d="M10265 8820 c-3 -5 3 -10 15 -10 12 0 18 5 15 10 -3 6 -10 10 -15 10
-5 0 -12 -4 -15 -10z"/>
<path d="M1013 7803 c-47 -9 -21 -23 42 -23 68 0 87 13 34 24 -33 6 -39 6 -76
-1z"/>
<path d="M862 7757 c-42 -43 -53 -67 -29 -67 19 0 100 87 93 99 -11 18 -19 13
-64 -32z"/>
<path d="M780 7725 l0 -55 60 0 c57 0 60 1 60 25 0 14 -4 25 -10 25 -5 0 -10
-9 -10 -20 0 -17 -7 -20 -40 -20 l-40 0 0 44 c0 43 1 45 33 49 28 3 26 4 -10
5 l-43 2 0 -55z"/>
<path d="M1000 7731 c0 -62 7 -71 55 -71 48 0 55 9 55 71 l0 39 -55 0 -55 0 0
-39z"/>
<path d="M1309 7753 c-8 -10 -9 -14 -2 -10 8 5 13 -7 16 -40 3 -48 3 -48 5 10
1 31 0 57 -2 57 -2 0 -10 -8 -17 -17z"/>
<path d="M1609 7753 c-8 -10 -9 -14 -2 -10 8 5 13 -7 16 -40 3 -48 3 -48 5 10
1 31 0 57 -2 57 -2 0 -10 -8 -17 -17z"/>
<path d="M1675 7747 c-4 -14 -5 -38 -3 -53 2 -23 8 -29 27 -29 45 0 48 97 3
103 -16 2 -23 -3 -27 -21z m40 -33 c0 -28 -4 -39 -15 -39 -16 0 -26 45 -16 72
11 28 31 7 31 -33z"/>
<path d="M1778 7763 c29 -6 28 -34 -3 -63 -34 -32 -31 -40 13 -38 l37 1 -34 4
-33 4 27 29 c32 34 30 64 -5 67 -22 1 -22 1 -2 -4z"/>
<path d="M1854 7755 c-15 -12 -15 -14 -2 -9 14 5 17 -2 21 -43 l3 -48 2 58 c1
31 1 57 -1 57 -2 0 -12 -7 -23 -15z"/>
<path d="M1938 7760 c28 -12 28 -28 0 -39 l-22 -8 22 -5 c12 -4 22 -14 22 -23
0 -13 -6 -16 -26 -12 -16 3 -22 1 -16 -5 16 -16 47 -4 50 20 2 12 -2 22 -9 22
-9 0 -8 4 1 15 17 21 5 45 -22 44 l-23 0 23 -9z"/>
<path d="M2000 7762 c0 -6 9 -8 20 -5 29 8 26 -28 -5 -57 -34 -32 -31 -40 13
-39 30 2 32 3 10 6 -33 5 -36 18 -7 33 28 16 23 64 -8 68 -13 2 -23 -1 -23 -6z"/>
<path d="M2084 7755 c-4 -8 -4 -21 -1 -29 3 -7 1 -18 -5 -24 -15 -15 8 -42 34
-42 23 0 34 25 19 43 -8 10 -7 17 1 25 8 8 8 15 -2 27 -16 19 -39 19 -46 0z
m36 -15 c0 -11 -7 -20 -15 -20 -8 0 -15 9 -15 20 0 11 7 20 15 20 8 0 15 -9
15 -20z m5 -50 c0 -8 -8 -16 -17 -18 -13 -2 -18 3 -18 18 0 15 5 20 18 18 9
-2 17 -10 17 -18z"/>
<path d="M2840 7752 c0 -13 -7 -18 -21 -18 -12 1 -26 -7 -33 -16 -15 -25 4
-53 38 -54 25 -1 26 1 26 52 0 30 -2 54 -5 54 -3 0 -5 -8 -5 -18z m-5 -52 c0
-16 -6 -26 -18 -28 -19 -4 -32 20 -23 44 9 25 41 13 41 -16z"/>
<path d="M3282 7728 c-1 -33 -7 -50 -19 -57 -10 -6 -13 -11 -7 -11 22 0 35 29
31 72 l-4 43 -1 -47z"/>
<path d="M4090 7715 c0 -30 5 -55 10 -55 6 0 10 25 10 55 0 30 -4 55 -10 55
-5 0 -10 -25 -10 -55z"/>
<path d="M4270 7750 c-24 -24 -25 -48 -4 -78 16 -23 74 -32 74 -11 0 5 -5 7
-11 4 -20 -13 -59 5 -65 31 -12 48 55 87 86 49 14 -17 10 -47 -9 -53 -10 -3
-12 2 -7 22 6 23 3 26 -18 26 -16 0 -27 -7 -31 -20 -9 -29 0 -38 40 -38 29 0
36 4 41 24 13 53 -56 84 -96 44z m50 -40 c0 -11 -7 -20 -15 -20 -15 0 -21 21
-8 33 12 13 23 7 23 -13z"/>
<path d="M4390 7715 c0 -30 5 -55 10 -55 6 0 10 25 10 55 0 30 -4 55 -10 55
-5 0 -10 -25 -10 -55z"/>
<path d="M5896 7761 c-4 -5 3 -7 14 -4 31 8 38 -26 11 -49 -13 -10 -19 -18
-14 -18 20 0 45 39 38 59 -6 21 -39 29 -49 12z"/>
<path d="M5990 7763 c8 -3 22 -11 30 -17 13 -10 13 -9 1 7 -7 9 -21 17 -30 16
-13 0 -14 -1 -1 -6z"/>
<path d="M6074 7755 c-15 -12 -15 -14 -2 -9 14 5 17 -2 21 -43 l3 -48 2 58 c1
31 1 57 -1 57 -2 0 -12 -7 -23 -15z"/>
<path d="M6158 7763 c26 -5 29 -28 6 -41 -15 -8 -15 -10 0 -15 23 -9 20 -35
-4 -40 -17 -4 -16 -4 2 -3 16 1 24 8 26 24 2 12 -2 22 -9 22 -9 0 -8 4 1 15
17 21 5 45 -22 44 l-23 -2 23 -4z"/>
<path d="M6238 7763 c29 -6 28 -34 -3 -63 -34 -32 -31 -40 13 -38 l37 1 -34 4
-33 4 27 29 c32 34 30 64 -5 67 -22 1 -22 1 -2 -4z"/>
<path d="M6314 7755 c-15 -12 -15 -14 -2 -9 14 5 17 -2 21 -43 l3 -48 2 58 c1
31 1 57 -1 57 -2 0 -12 -7 -23 -15z"/>
<path d="M6397 7764 c12 -3 24 -13 27 -22 3 -12 4 -11 3 3 -2 14 -10 21 -27
22 -21 1 -21 1 -3 -3z"/>
<path d="M6483 7764 c23 -7 21 -33 -5 -63 l-23 -26 28 25 c32 28 33 64 2 67
-16 1 -16 1 -2 -3z"/>
<path d="M6559 7753 c-8 -10 -9 -14 -2 -10 8 5 13 -7 16 -40 3 -48 3 -48 5 10
1 31 0 57 -2 57 -2 0 -10 -8 -17 -17z"/>
<path d="M6626 7762 c-3 -5 4 -8 16 -8 31 1 33 -20 4 -45 -36 -31 -33 -49 7
-48 30 2 30 2 5 6 -32 5 -36 18 -9 32 25 14 34 40 20 57 -13 16 -35 18 -43 6z"/>
<path d="M6723 7764 c9 -3 17 -14 17 -25 0 -11 -7 -19 -17 -20 -13 0 -12 -3 5
-10 29 -11 24 -31 -9 -40 -22 -6 -22 -7 -3 -8 26 -1 49 23 38 41 -4 7 -8 24
-8 38 -1 17 -7 25 -21 27 -16 1 -16 1 -2 -3z"/>
<path d="M6900 7746 c0 -16 7 -26 21 -29 28 -8 21 -42 -9 -41 -12 0 -22 -3
-22 -8 0 -9 22 -11 44 -2 24 9 20 55 -4 61 -27 7 -25 31 3 36 19 4 18 4 -5 6
-23 1 -28 -3 -28 -23z"/>
<path d="M6975 7747 c-4 -14 -5 -38 -3 -53 2 -23 8 -29 27 -29 45 0 48 97 3
103 -16 2 -23 -3 -27 -21z m40 -33 c0 -28 -4 -39 -15 -39 -16 0 -26 45 -16 72
11 28 31 7 31 -33z"/>
<path d="M2663 7700 c0 -25 2 -35 4 -22 2 12 2 32 0 45 -2 12 -4 2 -4 -23z"/>
<path d="M2701 7696 l2 -41 6 35 c8 48 38 54 44 8 l4 -33 -1 35 c-1 31 -4 35
-28 36 -26 1 -28 -1 -27 -40z"/>
<path d="M2880 7725 c-26 -31 13 -82 44 -56 19 16 21 42 4 59 -16 16 -33 15
-48 -3z m45 -25 c0 -16 -6 -26 -18 -28 -19 -4 -32 20 -23 44 9 25 41 13 41
-16z"/>
<path d="M2961 7695 l2 -40 6 35 c4 22 12 35 21 35 9 0 17 -13 21 -35 l6 -35
4 35 c3 26 9 35 22 34 9 -1 17 2 17 6 0 4 -22 7 -50 7 l-50 -1 1 -41z"/>
<path d="M3113 7734 c23 -7 22 -20 -4 -27 -22 -6 -24 -38 -1 -43 7 -1 8 0 2 3
-15 7 -12 33 4 33 8 0 17 -10 19 -22 3 -13 4 -5 4 17 -2 32 -6 40 -22 42 -16
1 -16 1 -2 -3z"/>
<path d="M3173 7700 c0 -25 2 -35 4 -22 2 12 2 32 0 45 -2 12 -4 2 -4 -23z"/>
<path d="M3320 7725 c-26 -31 13 -82 44 -56 19 16 21 42 4 59 -16 16 -33 15
-48 -3z m45 -25 c0 -16 -6 -26 -18 -28 -19 -4 -32 20 -23 44 9 25 41 13 41
-16z"/>
<path d="M3403 7724 c-6 -16 12 -34 32 -34 6 1 2 5 -7 11 -10 5 -18 14 -18 19
0 5 8 11 18 13 16 4 16 5 -1 6 -10 0 -20 -6 -24 -15z"/>
<path d="M3472 7728 c-26 -26 -6 -69 33 -67 17 1 17 2 -4 8 -38 10 -38 31 1
32 l33 2 -35 7 c-27 5 -31 8 -18 14 9 4 22 4 29 0 8 -4 9 -3 5 4 -9 15 -29 15
-44 0z"/>
<path d="M4133 7700 c0 -25 2 -35 4 -22 2 12 2 32 0 45 -2 12 -4 2 -4 -23z"/>
<path d="M4171 7696 l2 -41 6 35 c4 22 12 35 21 35 9 0 18 -13 22 -35 l6 -35
-1 40 c-2 36 -5 40 -29 41 -26 1 -28 -1 -27 -40z"/>
<path d="M4433 7700 c0 -25 2 -35 4 -22 2 12 2 32 0 45 -2 12 -4 2 -4 -23z"/>
<path d="M4471 7696 l2 -41 6 35 c4 22 12 35 21 35 9 0 18 -13 22 -35 l6 -35
-1 40 c-2 36 -5 40 -29 41 -26 1 -28 -1 -27 -40z"/>
<path d="M4590 7726 c-20 -25 -8 -61 20 -63 25 -3 25 -3 3 7 -13 5 -23 18 -23
30 0 12 9 24 23 30 15 6 17 9 6 9 -9 1 -22 -6 -29 -13z"/>
<path d="M4663 7734 c-19 -8 -16 -63 3 -71 26 -10 49 11 49 43 0 29 -22 40
-52 28z m42 -34 c0 -16 -6 -26 -18 -28 -19 -4 -32 20 -23 44 9 25 41 13 41
-16z"/>
<path d="M4741 7696 l2 -41 6 35 c4 22 12 35 21 35 9 0 17 -13 21 -35 l6 -35
4 34 c6 48 29 53 29 7 0 -20 5 -36 10 -36 12 0 13 50 2 66 -4 6 -28 11 -54 11
l-48 -1 1 -40z"/>
<path d="M5996 7721 c-19 -7 -19 -8 3 -14 28 -7 22 -32 -8 -31 -11 0 -21 -3
-21 -8 0 -14 37 -9 50 7 9 11 10 18 1 28 -6 8 -8 17 -4 20 8 8 4 8 -21 -2z"/>
<path d="M3415 7670 c-16 -7 -17 -9 -3 -9 9 -1 20 4 23 9 7 11 7 11 -20 0z"/>
<path d="M5890 7668 c0 -4 14 -8 30 -8 17 0 30 2 30 4 0 2 -13 6 -30 8 -16 3
-30 1 -30 -4z"/>
<path d="M6400 7670 c-23 -7 -23 -8 -3 -9 12 -1 25 4 28 9 3 6 5 10 3 9 -2 -1
-14 -5 -28 -9z"/>
<path d="M2613 7663 c9 -2 23 -2 30 0 6 3 -1 5 -18 5 -16 0 -22 -2 -12 -5z"/>
<path d="M6473 7663 c9 -2 25 -2 35 0 9 3 1 5 -18 5 -19 0 -27 -2 -17 -5z"/>
<path d="M1013 7573 c-47 -9 -21 -23 42 -23 68 0 87 13 34 24 -33 6 -39 6 -76
-1z"/>
<path d="M862 7527 c-42 -43 -53 -67 -29 -67 19 0 100 87 93 99 -11 18 -19 13
-64 -32z"/>
<path d="M780 7495 l0 -55 60 0 c57 0 60 1 60 25 0 14 -4 25 -10 25 -5 0 -10
-9 -10 -20 0 -17 -7 -20 -40 -20 l-40 0 0 44 c0 43 1 45 33 49 28 3 26 4 -10
5 l-43 2 0 -55z"/>
<path d="M1000 7501 c0 -62 7 -71 55 -71 48 0 55 9 55 71 l0 39 -55 0 -55 0 0
-39z"/>
<path d="M1300 7516 c0 -16 7 -26 21 -29 28 -8 21 -39 -11 -48 -21 -6 -22 -7
-4 -8 41 -2 63 56 24 66 -25 7 -26 30 -2 36 13 4 11 5 -5 6 -18 1 -23 -4 -23
-23z"/>
<path d="M1600 7516 c0 -16 7 -26 21 -29 28 -8 21 -42 -9 -41 -12 0 -22 -3
-22 -8 0 -9 22 -11 44 -2 24 9 20 55 -4 61 -27 7 -25 31 3 36 19 4 18 4 -5 6
-23 1 -28 -3 -28 -23z"/>
<path d="M1676 7524 c-3 -9 -1 -23 5 -30 9 -11 9 -14 0 -14 -7 0 -11 -10 -9
-22 2 -17 10 -23 28 -23 23 0 25 3 25 50 0 43 -3 50 -21 53 -13 2 -24 -4 -28
-14z m40 -5 c10 -17 -13 -36 -27 -22 -12 12 -4 33 11 33 5 0 12 -5 16 -11z m4
-59 c0 -11 -6 -20 -14 -20 -18 0 -29 16 -21 30 11 18 35 11 35 -10z"/>
<path d="M1760 7516 c0 -15 7 -26 20 -29 27 -7 25 -35 -2 -47 -23 -10 -23 -10
2 -7 34 3 43 56 11 64 -28 7 -27 31 2 36 19 4 18 4 -5 6 -23 1 -28 -3 -28 -23z"/>
<path d="M1853 7533 c32 -5 31 -1 11 -48 -8 -20 -14 -41 -12 -45 2 -5 13 16
24 46 l21 54 -36 -1 c-30 -2 -31 -3 -8 -6z"/>
<path d="M2600 7530 c0 -5 9 -24 20 -42 24 -39 26 -34 5 16 -15 35 -25 46 -25
26z"/>
<path d="M2675 7509 c-9 -17 -14 -33 -12 -36 3 -2 9 6 13 19 7 20 9 17 15 -22
l6 -45 1 58 c1 31 0 57 -3 57 -2 0 -12 -14 -20 -31z"/>
<path d="M3023 7485 c0 -33 2 -45 4 -27 2 18 2 45 0 60 -2 15 -4 0 -4 -33z"/>
<path d="M3307 7533 c-15 -14 -6 -40 18 -53 30 -16 28 -32 -6 -41 -22 -6 -22
-7 -3 -8 12 -1 28 6 35 15 12 14 10 19 -14 38 -33 26 -34 43 -4 49 20 4 20 4
1 6 -11 0 -24 -2 -27 -6z"/>
<path d="M3423 7485 c0 -33 2 -45 4 -27 2 18 2 45 0 60 -2 15 -4 0 -4 -33z"/>
<path d="M4162 7485 c0 -34 3 -52 7 -42 6 17 8 17 20 3 7 -9 18 -16 24 -16 6
0 -1 12 -15 28 -15 15 -28 41 -31 57 -2 17 -4 3 -5 -30z"/>
<path d="M4233 7485 c0 -33 2 -45 4 -27 2 18 2 45 0 60 -2 15 -4 0 -4 -33z"/>
<path d="M4320 7522 c0 -13 -7 -18 -21 -18 -12 1 -26 -7 -33 -16 -15 -25 4
-53 38 -54 25 -1 26 1 26 52 0 30 -2 54 -5 54 -3 0 -5 -8 -5 -18z m-2 -50 c2
-14 -3 -25 -13 -29 -21 -7 -34 12 -27 39 6 26 36 19 40 -10z"/>
<path d="M4422 7485 c0 -33 2 -52 5 -42 6 21 19 22 27 2 3 -8 11 -15 17 -15 7
0 5 8 -6 20 -17 19 -17 21 0 40 10 11 13 20 8 20 -6 0 -17 -7 -24 -17 -13 -15
-15 -13 -20 18 -5 26 -6 20 -7 -26z"/>
<path d="M4517 7528 c-9 -7 -19 -25 -22 -40 -9 -34 24 -69 63 -67 l27 2 -26 4
c-15 2 -35 13 -45 24 -17 19 -17 23 -3 47 16 30 52 40 75 21 16 -13 15 -50 -1
-49 -5 1 -9 10 -7 20 4 24 -29 28 -48 5 -21 -26 -5 -44 37 -42 33 2 38 6 41
28 6 48 -51 77 -91 47z m47 -36 c2 -4 1 -14 -4 -22 -7 -11 -12 -12 -21 -3 -6
6 -8 16 -5 22 8 13 23 14 30 3z"/>
<path d="M4782 7485 c0 -35 2 -52 7 -42 6 17 8 17 20 3 7 -9 18 -16 24 -16 5
0 3 8 -6 18 -21 23 -21 27 -1 46 8 9 11 16 6 16 -5 0 -16 -7 -23 -17 -13 -15
-15 -13 -20 18 -5 26 -7 21 -7 -26z"/>
<path d="M4900 7526 c0 -8 -10 -16 -22 -18 -19 -2 -23 -9 -23 -38 0 -32 3 -35
33 -38 l32 -3 0 55 c0 31 -4 56 -10 56 -5 0 -10 -6 -10 -14z m0 -56 c0 -20 -5
-30 -15 -30 -18 0 -30 24 -21 45 10 28 36 17 36 -15z"/>
<path d="M4943 7485 c0 -33 2 -45 4 -27 2 18 2 45 0 60 -2 15 -4 0 -4 -33z"/>
<path d="M5909 7523 c-8 -10 -9 -14 -2 -10 8 5 13 -7 16 -40 3 -48 3 -48 5 10
1 31 0 57 -2 57 -2 0 -10 -8 -17 -17z"/>
<path d="M5990 7533 c8 -3 22 -11 30 -17 13 -10 13 -9 1 7 -7 9 -21 17 -30 16
-13 0 -14 -1 -1 -6z"/>
<path d="M6078 7533 c29 -6 28 -34 -3 -63 -34 -32 -31 -40 13 -38 l37 1 -34 4
-33 4 27 29 c32 34 30 64 -5 67 -22 1 -22 1 -2 -4z"/>
<path d="M6154 7525 c-15 -12 -15 -14 -2 -9 14 5 17 -2 21 -43 l3 -48 2 58 c1
31 1 57 -1 57 -2 0 -12 -7 -23 -15z"/>
<path d="M6238 7533 c29 -6 28 -34 -3 -63 -34 -32 -31 -40 13 -38 l37 1 -34 4
-33 4 27 29 c32 34 30 64 -5 67 -22 1 -22 1 -2 -4z"/>
<path d="M6909 7523 c-8 -10 -9 -14 -2 -10 8 5 13 -7 16 -40 3 -48 3 -48 5 10
1 31 0 57 -2 57 -2 0 -10 -8 -17 -17z"/>
<path d="M2733 7470 c0 -25 2 -35 4 -22 2 12 2 32 0 45 -2 12 -4 2 -4 -23z"/>
<path d="M2770 7496 c-17 -22 -8 -60 15 -64 19 -4 19 -3 1 10 -24 19 -17 53
11 52 12 0 20 3 17 8 -8 13 -30 9 -44 -6z"/>
<path d="M2851 7488 c-2 -37 8 -58 27 -58 14 0 14 1 0 13 -9 6 -19 26 -21 42
-4 28 -4 29 -6 3z"/>
<path d="M2903 7470 c0 -25 2 -35 4 -22 2 12 2 32 0 45 -2 12 -4 2 -4 -23z"/>
<path d="M2946 7501 c-4 -5 2 -7 13 -4 10 3 22 0 25 -6 5 -7 -4 -11 -23 -11
-34 0 -38 -7 -18 -34 8 -11 21 -16 33 -13 17 4 17 5 -2 6 -12 0 -24 8 -28 16
-4 11 2 15 24 15 32 0 37 9 18 28 -14 14 -35 16 -42 3z"/>
<path d="M3100 7496 c-17 -22 -8 -60 15 -64 19 -4 19 -3 1 10 -24 19 -17 53
11 52 12 0 20 3 17 8 -8 13 -30 9 -44 -6z"/>
<path d="M3203 7504 c23 -7 22 -20 -4 -27 -22 -6 -24 -38 -1 -43 7 -1 8 0 2 3
-15 7 -12 33 4 33 8 0 17 -10 19 -22 3 -13 4 -5 4 17 -2 32 -6 40 -22 42 -16
1 -16 1 -2 -3z"/>
<path d="M3383 7470 c0 -25 2 -35 4 -22 2 12 2 32 0 45 -2 12 -4 2 -4 -23z"/>
<path d="M3455 7473 c15 -36 25 -52 25 -41 0 3 7 22 15 42 8 20 13 36 10 36
-3 0 -11 -15 -18 -32 l-13 -33 -12 33 c-6 17 -14 32 -17 32 -3 0 2 -17 10 -37z"/>
<path d="M3530 7506 c0 -2 9 -6 20 -9 11 -3 20 -1 20 4 0 5 -9 9 -20 9 -11 0
-20 -2 -20 -4z"/>
<path d="M4097 7503 c-13 -13 -7 -30 16 -40 l22 -11 -25 -10 c-24 -10 -24 -11
-3 -11 32 -1 40 19 15 40 -27 21 -27 26 -4 32 14 4 14 5 1 6 -9 0 -19 -2 -22
-6z"/>
<path d="M4189 7493 c-13 -16 -12 -17 4 -4 9 7 17 15 17 17 0 8 -8 3 -21 -13z"/>
<path d="M4354 7498 c-4 -6 2 -19 14 -29 27 -22 28 -33 2 -26 -11 3 -20 1 -20
-5 0 -16 45 -4 48 13 1 8 -7 20 -20 26 l-23 11 25 10 c24 10 24 11 3 11 -12 1
-25 -4 -29 -11z"/>
<path d="M4634 7498 c-4 -7 2 -18 14 -26 28 -18 29 -36 2 -29 -11 3 -20 1 -20
-4 0 -5 9 -9 20 -9 27 0 38 30 17 42 -22 12 -22 25 1 31 13 4 12 5 -5 6 -12 0
-25 -4 -29 -11z"/>
<path d="M4706 7501 c-4 -5 3 -7 14 -4 11 3 20 1 20 -5 0 -5 -9 -12 -20 -15
-31 -8 -27 -47 5 -47 23 0 25 4 25 40 0 33 -3 40 -19 40 -11 0 -22 -4 -25 -9z
m34 -46 c0 -8 -7 -15 -15 -15 -16 0 -20 12 -8 23 11 12 23 8 23 -8z"/>
<path d="M4974 7498 c-4 -6 2 -19 14 -29 27 -22 28 -33 2 -26 -11 3 -20 1 -20
-5 0 -16 45 -4 48 13 1 8 -7 20 -20 26 l-23 11 25 10 c24 10 24 11 3 11 -12 1
-25 -4 -29 -11z"/>
<path d="M5080 7496 c-20 -25 -8 -61 20 -63 25 -3 25 -3 3 7 -13 5 -23 18 -23
30 0 12 9 24 23 30 15 6 17 9 6 9 -9 1 -22 -6 -29 -13z"/>
<path d="M5153 7504 c-19 -8 -16 -63 3 -71 26 -10 49 11 49 43 0 29 -22 40
-52 28z m42 -34 c0 -16 -6 -26 -18 -28 -19 -4 -32 20 -23 44 9 25 41 13 41
-16z"/>
<path d="M5231 7466 l2 -41 6 35 c4 22 12 35 21 35 9 0 17 -13 21 -35 l6 -35
4 34 c6 48 29 53 29 7 0 -20 5 -36 10 -36 12 0 13 50 2 66 -4 6 -28 11 -54 11
l-48 -1 1 -40z"/>
<path d="M5996 7491 c-19 -7 -19 -8 3 -14 28 -7 22 -32 -8 -31 -11 0 -21 -3
-21 -8 0 -14 37 -9 50 7 9 11 10 18 1 28 -6 8 -8 17 -4 20 8 8 4 8 -21 -2z"/>
<path d="M3531 7471 c-8 -5 -11 -16 -8 -25 7 -17 32 -22 41 -7 4 5 -3 7 -14 4
-28 -7 -26 15 3 27 12 5 15 9 7 9 -8 0 -21 -3 -29 -8z"/>
<path d="M2647 7453 c-4 -3 -7 -11 -7 -17 0 -6 5 -5 12 2 6 6 9 14 7 17 -3 3
-9 2 -12 -2z"/>
<path d="M2810 7422 c0 -7 -12 -13 -27 -13 -26 -2 -26 -2 -4 -6 24 -5 50 11
38 24 -4 3 -7 1 -7 -5z"/>
<path d="M1013 7353 c-47 -9 -21 -23 42 -23 68 0 87 13 34 24 -33 6 -39 6 -76
-1z"/>
<path d="M862 7307 c-42 -43 -53 -67 -29 -67 19 0 100 87 93 99 -11 18 -19 13
-64 -32z"/>
<path d="M780 7275 l0 -55 60 0 c57 0 60 1 60 25 0 14 -4 25 -10 25 -5 0 -10
-9 -10 -20 0 -17 -7 -20 -40 -20 l-40 0 0 44 c0 43 1 45 33 49 28 3 26 4 -10
5 l-43 2 0 -55z"/>
<path d="M1000 7281 c0 -62 7 -71 55 -71 48 0 55 9 55 71 l0 39 -55 0 -55 0 0
-39z"/>
<path d="M1300 7301 c-15 -28 -12 -67 5 -81 17 -14 45 -7 45 12 0 10 -3 9 -9
-1 -11 -17 -41 -7 -41 14 0 21 30 31 42 14 8 -12 9 -11 5 1 -2 8 -14 15 -26
14 -11 0 -21 2 -21 5 1 14 16 29 35 34 18 4 18 5 -2 6 -13 0 -27 -7 -33 -18z"/>
<path d="M1600 7296 c0 -16 7 -26 21 -29 28 -8 21 -42 -9 -41 -12 0 -22 -3
-22 -8 0 -9 22 -11 44 -2 24 9 20 55 -4 61 -27 7 -25 31 3 36 19 4 18 4 -5 6
-23 1 -28 -3 -28 -23z"/>
<path d="M1689 7303 c-8 -10 -9 -14 -2 -10 8 5 13 -7 16 -40 3 -48 3 -48 5 10
1 31 0 57 -2 57 -2 0 -10 -8 -17 -17z"/>
<path d="M1774 7305 c-15 -12 -15 -14 -2 -9 14 5 17 -2 21 -43 l3 -48 2 58 c1
31 1 57 -1 57 -2 0 -12 -7 -23 -15z"/>
<path d="M1858 7313 c29 -6 28 -34 -3 -63 -34 -32 -31 -40 13 -38 l37 1 -34 4
-33 4 27 29 c32 34 30 64 -5 67 -22 1 -22 1 -2 -4z"/>
<path d="M2618 7313 c13 -3 22 -12 22 -24 0 -13 -7 -19 -22 -20 -22 -1 -22 -1
2 -8 14 -4 25 -13 25 -21 0 -8 -11 -17 -25 -21 -22 -6 -23 -7 -4 -8 26 -1 49
23 38 41 -4 7 -8 24 -8 38 -1 19 -7 25 -26 27 -22 1 -22 1 -2 -4z"/>
<path d="M3297 7313 c-15 -14 -6 -40 18 -53 30 -16 28 -32 -6 -41 -22 -6 -22
-7 -3 -8 12 -1 28 6 35 15 12 14 10 19 -14 38 -33 26 -34 43 -4 49 20 4 20 4
1 6 -11 0 -24 -2 -27 -6z"/>
<path d="M3403 7265 c0 -33 2 -45 4 -27 2 18 2 45 0 60 -2 15 -4 0 -4 -33z"/>
<path d="M4090 7265 c0 -54 0 -55 30 -55 23 0 31 5 36 25 8 34 -1 55 -26 55
-11 0 -20 7 -20 15 0 8 -4 15 -10 15 -5 0 -10 -25 -10 -55z m55 -15 c0 -16 -6
-26 -17 -28 -14 -3 -18 3 -18 28 0 25 4 31 18 28 11 -2 17 -12 17 -28z"/>
<path d="M4317 7308 c-9 -7 -19 -25 -22 -40 -9 -34 24 -69 63 -67 l27 2 -26 4
c-15 2 -35 13 -45 24 -17 19 -17 23 -3 47 16 30 52 40 75 21 16 -13 15 -50 -1
-49 -5 1 -9 10 -7 20 4 24 -29 28 -48 5 -21 -26 -5 -44 37 -42 33 2 38 6 41
28 6 48 -51 77 -91 47z m47 -36 c2 -4 1 -14 -4 -22 -7 -11 -12 -12 -21 -3 -6
6 -8 16 -5 22 8 13 23 14 30 3z"/>
<path d="M4773 7265 c0 -33 2 -45 4 -27 2 18 2 45 0 60 -2 15 -4 0 -4 -33z"/>
<path d="M5910 7313 c8 -3 22 -11 30 -17 13 -10 13 -9 1 7 -7 9 -21 17 -30 16
-13 0 -14 -1 -1 -6z"/>
<path d="M5976 7311 c-4 -5 3 -7 14 -4 31 8 38 -26 11 -49 -13 -10 -19 -18
-14 -18 20 0 45 39 38 59 -6 21 -39 29 -49 12z"/>
<path d="M6078 7313 c26 -5 29 -28 6 -41 -15 -8 -15 -10 0 -15 23 -9 20 -35
-4 -40 -17 -4 -16 -4 2 -3 16 1 24 8 26 24 2 12 -2 22 -9 22 -9 0 -8 4 1 15
17 21 5 45 -22 44 l-23 -2 23 -4z"/>
<path d="M6158 7313 c26 -5 29 -28 6 -41 -15 -8 -15 -10 0 -15 23 -9 20 -35
-4 -40 -17 -4 -16 -4 2 -3 16 1 24 8 26 24 2 12 -2 22 -9 22 -9 0 -8 4 1 15
17 21 5 45 -22 44 l-23 -2 23 -4z"/>
<path d="M6234 7305 c-15 -12 -15 -14 -2 -9 14 5 17 -2 21 -43 l3 -48 2 58 c1
31 1 57 -1 57 -2 0 -12 -7 -23 -15z"/>
<path d="M6317 7314 c12 -3 24 -13 27 -22 3 -12 4 -11 3 3 -2 14 -10 21 -27
22 -21 1 -21 1 -3 -3z"/>
<path d="M6394 7305 c-15 -12 -15 -14 -2 -9 14 5 17 -2 21 -43 l3 -48 2 58 c1
31 1 57 -1 57 -2 0 -12 -7 -23 -15z"/>
<path d="M6477 7314 c12 -3 24 -13 27 -22 3 -12 4 -11 3 3 -2 14 -10 21 -27
22 -21 1 -21 1 -3 -3z"/>
<path d="M6546 7312 c-3 -5 4 -8 16 -8 31 1 33 -20 4 -45 -36 -31 -33 -49 7
-48 30 2 30 2 5 6 -32 5 -36 18 -9 32 25 14 34 40 20 57 -13 16 -35 18 -43 6z"/>
<path d="M6643 7314 c9 -3 17 -14 17 -25 0 -11 -7 -19 -17 -20 -13 0 -12 -3 5
-10 29 -11 24 -31 -9 -40 -22 -6 -22 -7 -3 -8 26 -1 49 23 38 41 -4 7 -8 24
-8 38 -1 17 -7 25 -21 27 -16 1 -16 1 -2 -3z"/>
<path d="M6719 7303 c-8 -10 -9 -14 -2 -10 8 5 13 -7 16 -40 3 -48 3 -48 5 10
1 31 0 57 -2 57 -2 0 -10 -8 -17 -17z"/>
<path d="M6896 7312 c-3 -5 4 -8 16 -8 31 1 33 -20 4 -45 -36 -31 -33 -49 7
-48 31 2 31 2 3 6 l-28 5 27 28 c15 15 25 36 23 47 -3 19 -42 31 -52 15z"/>
<path d="M2838 7299 c-2 -6 -2 -28 0 -50 3 -28 9 -39 21 -38 10 0 11 2 4 6
-15 5 -18 60 -4 65 5 2 3 8 -4 15 -9 8 -15 9 -17 2z"/>
<path d="M2686 7281 c-4 -5 2 -7 13 -4 10 3 22 0 25 -6 5 -7 -4 -11 -23 -11
-34 0 -38 -7 -18 -34 8 -11 21 -16 33 -13 17 4 17 5 -2 6 -12 0 -24 8 -28 16
-4 11 2 15 24 15 32 0 37 9 18 28 -14 14 -35 16 -42 3z"/>
<path d="M2766 7281 c-3 -5 3 -7 14 -4 11 3 20 0 20 -6 0 -6 -6 -11 -14 -11
-19 0 -36 -23 -28 -37 4 -7 18 -11 30 -10 20 1 23 6 20 37 -3 34 -28 54 -42
31z m34 -40 c0 -14 -18 -23 -30 -16 -6 4 -8 11 -5 16 8 12 35 12 35 0z"/>
<path d="M2893 7250 c0 -25 2 -35 4 -22 2 12 2 32 0 45 -2 12 -4 2 -4 -23z"/>
<path d="M2943 7250 c0 -25 2 -35 4 -22 2 12 2 32 0 45 -2 12 -4 2 -4 -23z"/>
<path d="M2988 7283 l22 -4 -20 -29 c-26 -37 -25 -40 8 -39 23 2 24 2 4 6
l-22 4 20 29 c26 37 25 40 -7 39 -24 -2 -25 -2 -5 -6z"/>
<path d="M3090 7276 c-17 -22 -8 -60 15 -64 19 -4 19 -3 1 10 -24 19 -17 53
11 52 12 0 20 3 17 8 -8 13 -30 9 -44 -6z"/>
<path d="M3193 7284 c23 -7 22 -20 -4 -27 -22 -6 -24 -38 -1 -43 7 -1 8 0 2 3
-15 7 -12 33 4 33 8 0 17 -10 19 -22 3 -13 4 -5 4 17 -2 32 -6 40 -22 42 -16
1 -16 1 -2 -3z"/>
<path d="M3373 7250 c0 -25 2 -35 4 -22 2 12 2 32 0 45 -2 12 -4 2 -4 -23z"/>
<path d="M3445 7253 c15 -36 25 -52 25 -41 0 3 7 22 15 42 8 20 13 36 10 36
-3 0 -11 -15 -18 -32 l-13 -33 -12 33 c-6 17 -14 32 -17 32 -3 0 2 -17 10 -37z"/>
<path d="M3520 7286 c0 -2 9 -6 20 -9 11 -3 20 -1 20 4 0 5 -9 9 -20 9 -11 0
-20 -2 -20 -4z"/>
<path d="M4183 7250 c0 -25 2 -35 4 -22 2 12 2 32 0 45 -2 12 -4 2 -4 -23z"/>
<path d="M4220 7282 c0 -6 9 -8 20 -5 27 7 25 -10 -2 -22 -33 -14 -29 -40 5
-41 26 -1 28 1 25 35 -2 29 -8 37 -25 39 -13 2 -23 -1 -23 -6z m40 -41 c0 -14
-18 -23 -30 -16 -6 4 -8 11 -5 16 8 12 35 12 35 0z"/>
<path d="M4442 7278 c-27 -27 0 -77 34 -64 10 4 14 1 12 -6 -3 -7 -15 -15 -29
-19 -14 -4 -17 -7 -7 -8 38 -2 48 10 48 58 0 42 -3 47 -23 49 -13 1 -29 -4
-35 -10z m46 -26 c2 -14 -3 -25 -13 -29 -21 -7 -34 12 -27 39 6 26 36 19 40
-10z"/>
<path d="M4531 7246 l2 -41 6 34 c9 49 31 52 32 4 1 -39 3 -38 13 10 9 37 29
30 38 -14 6 -34 6 -34 5 6 l-2 40 -47 1 -48 1 1 -41z"/>
<path d="M4680 7279 l25 -11 -28 -10 c-37 -13 -33 -43 6 -44 26 -1 28 1 25 35
-3 30 -7 36 -28 38 l-25 3 25 -11z m20 -38 c0 -14 -18 -23 -30 -16 -6 4 -8 11
-5 16 8 12 35 12 35 0z"/>
<path d="M4733 7250 c0 -25 2 -35 4 -22 2 12 2 32 0 45 -2 12 -4 2 -4 -23z"/>
<path d="M4842 7278 c-27 -27 -2 -74 35 -65 15 4 14 5 -3 6 -41 2 -41 56 -1
64 21 4 21 4 2 6 -12 0 -26 -4 -33 -11z"/>
<path d="M4912 7278 c-27 -27 -3 -73 35 -66 27 5 25 72 -2 76 -11 1 -26 -3
-33 -10z m43 -28 c0 -15 -6 -26 -16 -28 -19 -3 -31 21 -22 43 9 25 38 13 38
-15z"/>
<path d="M4990 7250 c0 -22 5 -40 10 -40 6 0 10 16 10 36 0 46 23 41 31 -7 l6
-34 4 35 c2 23 9 35 19 35 9 0 18 -13 22 -35 l6 -35 -1 40 -2 40 -52 2 -53 3
0 -40z"/>
<path d="M5916 7271 c-19 -7 -19 -8 3 -14 28 -7 22 -32 -8 -31 -11 0 -21 -3
-21 -8 0 -14 37 -9 50 7 9 11 10 18 1 28 -6 8 -8 17 -4 20 8 8 4 8 -21 -2z"/>
<path d="M3521 7251 c-8 -5 -11 -16 -8 -25 7 -17 32 -22 41 -7 4 5 -3 7 -14 4
-28 -7 -26 15 3 27 12 5 15 9 7 9 -8 0 -21 -3 -29 -8z"/>
<path d="M5970 7218 c0 -4 14 -8 30 -8 17 0 30 2 30 4 0 2 -13 6 -30 8 -16 3
-30 1 -30 -4z"/>
<path d="M6320 7220 c-23 -7 -23 -8 -3 -9 12 -1 25 4 28 9 3 6 5 10 3 9 -2 -1
-14 -5 -28 -9z"/>
<path d="M6480 7220 c-23 -7 -23 -8 -3 -9 12 -1 25 4 28 9 3 6 5 10 3 9 -2 -1
-14 -5 -28 -9z"/>
<path d="M1013 7123 c-47 -9 -21 -23 42 -23 68 0 87 13 34 24 -33 6 -39 6 -76
-1z"/>
<path d="M862 7077 c-42 -43 -53 -67 -29 -67 19 0 100 87 93 99 -11 18 -19 13
-64 -32z"/>
<path d="M780 7045 l0 -55 60 0 c57 0 60 1 60 25 0 14 -4 25 -10 25 -5 0 -10
-9 -10 -20 0 -17 -7 -20 -40 -20 l-40 0 0 44 c0 43 1 45 33 49 28 3 26 4 -10
5 l-43 2 0 -55z"/>
<path d="M1000 7051 c0 -62 7 -71 55 -71 48 0 55 9 55 71 l0 39 -55 0 -55 0 0
-39z"/>
<path d="M1312 7083 c20 -3 25 -9 22 -21 -5 -15 -4 -15 5 -2 17 24 13 30 -21
29 -30 -2 -30 -2 -6 -6z"/>
<path d="M1609 7073 c-8 -10 -9 -14 -2 -10 8 5 13 -7 16 -40 3 -48 3 -48 5 10
1 31 0 57 -2 57 -2 0 -10 -8 -17 -17z"/>
<path d="M1675 7067 c-4 -14 -5 -38 -3 -53 2 -23 8 -29 27 -29 45 0 48 97 3
103 -16 2 -23 -3 -27 -21z m40 -33 c0 -28 -4 -39 -15 -39 -16 0 -26 45 -16 72
11 28 31 7 31 -33z"/>
<path d="M1761 7076 c-17 -21 -9 -77 12 -90 15 -9 21 -7 33 8 37 50 -7 128
-45 82z m45 -20 c8 -31 -3 -66 -21 -66 -8 0 -17 9 -20 21 -9 29 2 69 20 69 8
0 17 -11 21 -24z"/>
<path d="M1841 7076 c-17 -21 -9 -77 12 -90 15 -9 21 -7 33 8 37 50 -7 128
-45 82z m45 -20 c8 -31 -3 -66 -21 -66 -8 0 -17 9 -20 21 -9 29 2 69 20 69 8
0 17 -11 21 -24z"/>
<path d="M2628 7063 l-26 -28 30 -30 31 -30 -23 33 -22 33 23 25 c12 13 20 24
18 24 -3 0 -17 -12 -31 -27z"/>
<path d="M2763 7035 c0 -33 2 -45 4 -27 2 18 2 45 0 60 -2 15 -4 0 -4 -33z"/>
<path d="M4090 7035 c0 -53 13 -74 22 -37 7 25 -3 92 -13 92 -5 0 -9 -25 -9
-55z"/>
<path d="M4267 7072 c-21 -23 -22 -66 -1 -86 16 -17 59 -22 68 -8 3 5 -7 7
-23 4 -34 -5 -54 17 -49 54 4 33 27 49 60 41 25 -7 39 -30 31 -54 -8 -23 -23
-14 -23 13 0 21 -4 25 -22 22 -16 -2 -24 -11 -26 -29 -3 -25 0 -27 33 -27 25
0 38 6 46 19 26 50 -55 94 -94 51z m51 -39 c-5 -25 -28 -28 -28 -4 0 12 6 21
16 21 9 0 14 -7 12 -17z"/>
<path d="M4723 7035 c0 -33 2 -45 4 -27 2 18 2 45 0 60 -2 15 -4 0 -4 -33z"/>
<path d="M5909 7073 c-8 -10 -9 -14 -2 -10 8 5 13 -7 16 -40 3 -48 3 -48 5 10
1 31 0 57 -2 57 -2 0 -10 -8 -17 -17z"/>
<path d="M5974 7066 c-7 -30 1 -46 24 -46 14 0 13 2 -3 14 -12 8 -16 19 -12
30 11 29 32 12 35 -27 3 -31 -1 -39 -20 -46 -15 -7 -17 -10 -7 -10 26 -1 41
24 37 66 -2 30 -7 39 -25 41 -17 3 -24 -3 -29 -22z"/>
<path d="M6102 7078 c-16 -16 -15 -33 3 -48 16 -13 55 -5 55 12 0 6 -6 6 -15
-2 -18 -15 -45 -6 -45 15 0 21 30 31 42 14 8 -12 9 -11 5 1 -5 19 -29 24 -45
8z"/>
<path d="M6198 7083 c29 -6 28 -34 -3 -63 -34 -32 -31 -40 13 -38 l37 1 -34 4
-33 4 27 29 c32 34 30 64 -5 67 -22 1 -22 1 -2 -4z"/>
<path d="M6260 7065 c0 -18 5 -25 19 -25 11 0 22 -6 24 -12 4 -10 6 -10 6 0 1
8 -8 16 -19 19 -27 7 -25 31 3 36 19 4 18 4 -5 6 -24 1 -28 -3 -28 -24z"/>
<path d="M6350 7075 c-7 -9 -10 -18 -6 -22 3 -3 6 -1 6 6 0 6 10 16 23 21 15
6 17 9 6 9 -9 1 -22 -6 -29 -14z"/>
<path d="M6420 7065 c0 -18 5 -25 19 -25 11 0 22 -6 24 -12 4 -10 6 -10 6 0 1
8 -8 16 -19 19 -27 7 -25 31 3 36 19 4 18 4 -5 6 -24 1 -28 -3 -28 -24z"/>
<path d="M6516 7081 c-3 -4 6 -6 19 -3 14 2 25 6 25 8 0 8 -39 4 -44 -5z"/>
<path d="M6598 7083 c6 -2 18 -2 25 0 6 3 1 5 -13 5 -14 0 -19 -2 -12 -5z"/>
<path d="M6909 7073 c-8 -10 -9 -14 -2 -10 8 5 13 -7 16 -40 3 -48 3 -48 5 10
1 31 0 57 -2 57 -2 0 -10 -8 -17 -17z"/>
<path d="M2686 7051 c-4 -5 2 -7 13 -4 10 3 22 0 25 -6 5 -7 -4 -11 -23 -11
-34 0 -38 -7 -18 -34 8 -11 21 -16 33 -13 17 4 17 5 -2 6 -12 0 -24 8 -28 16
-4 11 2 15 24 15 32 0 37 9 18 28 -14 14 -35 16 -42 3z"/>
<path d="M2791 7054 c-2 -22 21 -74 30 -68 5 3 9 10 9 16 0 6 -3 8 -7 4 -4 -4
-13 8 -19 26 -7 18 -13 28 -13 22z"/>
<path d="M2873 7020 c0 -25 2 -35 4 -22 2 12 2 32 0 45 -2 12 -4 2 -4 -23z"/>
<path d="M2901 7016 l2 -41 6 35 c8 48 38 54 44 8 l4 -33 -1 35 c-1 31 -4 35
-28 36 -26 1 -28 -1 -27 -40z"/>
<path d="M4125 7049 c-11 -17 1 -21 15 -4 8 9 8 15 2 15 -6 0 -14 -5 -17 -11z"/>
<path d="M4172 7048 c-27 -27 -2 -74 35 -65 14 4 13 5 -4 6 -33 2 -30 31 3 31
20 0 25 4 20 16 -3 9 -6 18 -6 20 0 9 -37 3 -48 -8z m43 -8 c3 -5 -3 -10 -14
-10 -12 0 -21 5 -21 10 0 6 6 10 14 10 8 0 18 -4 21 -10z"/>
<path d="M4394 7046 c-12 -31 0 -61 24 -60 29 1 23 -18 -9 -28 -22 -6 -21 -7
6 -5 29 2 30 4 33 55 3 50 2 52 -23 52 -14 0 -28 -6 -31 -14z m44 -23 c-3 -30
-25 -42 -34 -19 -9 22 2 46 21 46 12 0 15 -8 13 -27z"/>
<path d="M4481 7016 l2 -41 6 34 c8 48 31 53 31 7 0 -20 5 -36 10 -36 6 0 10
16 10 35 0 48 27 48 33 0 l4 -35 -1 37 -1 38 -47 1 -48 1 1 -41z"/>
<path d="M4610 7052 c0 -6 9 -8 20 -5 27 7 25 -10 -2 -22 -33 -14 -29 -40 5
-41 26 -1 28 1 25 35 -2 29 -8 37 -25 39 -13 2 -23 -1 -23 -6z m40 -41 c0 -14
-18 -23 -30 -16 -6 4 -8 11 -5 16 8 12 35 12 35 0z"/>
<path d="M4680 7020 c0 -22 5 -40 10 -40 6 0 10 18 10 40 0 22 -4 40 -10 40
-5 0 -10 -18 -10 -40z"/>
<path d="M4788 7035 c-13 -30 3 -56 36 -54 20 1 20 2 1 6 -40 10 -40 47 -1 63
21 9 21 9 -2 9 -15 1 -26 -8 -34 -24z"/>
<path d="M4862 7048 c-25 -25 -6 -68 30 -68 9 0 22 9 28 20 22 40 -26 80 -58
48z m48 -28 c0 -23 -5 -30 -19 -30 -11 0 -21 6 -24 13 -7 22 5 47 24 47 14 0
19 -7 19 -30z"/>
<path d="M4951 7016 l2 -41 6 34 c9 49 31 52 32 4 1 -39 3 -38 13 10 9 37 29
30 38 -14 6 -34 6 -34 5 6 l-2 40 -47 1 -48 1 1 -41z"/>
<path d="M6500 7034 c0 -35 22 -59 46 -50 24 9 15 61 -11 61 -11 0 -23 5 -27
10 -4 6 -8 -4 -8 -21z m50 -19 c0 -25 -23 -35 -35 -15 -10 16 2 40 20 40 9 0
15 -9 15 -25z"/>
<path d="M6373 7039 c9 -5 17 -17 17 -25 0 -20 -30 -30 -41 -13 -6 10 -9 11
-9 1 0 -20 30 -26 47 -9 19 18 9 57 -15 57 -16 -1 -15 -2 1 -11z"/>
<path d="M6608 7040 c30 -13 25 -45 -6 -44 -12 0 -22 -3 -22 -8 0 -14 37 -9
51 8 16 19 1 48 -27 51 -14 2 -13 0 4 -7z"/>
<path d="M1316 7025 c-3 -9 -6 -22 -5 -28 0 -7 5 -1 10 12 5 13 8 26 5 28 -2
2 -6 -3 -10 -12z"/>
<path d="M4126 6995 c4 -8 11 -15 16 -15 6 0 5 6 -2 15 -7 8 -14 15 -16 15 -2
0 -1 -7 2 -15z"/>
<path d="M6120 6994 c-17 -9 -20 -14 -9 -14 9 0 22 7 29 15 15 18 13 18 -20
-1z"/>
<path d="M6300 7002 c0 -7 -10 -13 -22 -13 -19 -1 -20 -2 -4 -6 20 -5 44 12
33 24 -4 3 -7 1 -7 -5z"/>
<path d="M6460 7002 c0 -7 -10 -13 -22 -13 -19 -1 -20 -2 -4 -6 20 -5 44 12
33 24 -4 3 -7 1 -7 -5z"/>
<path d="M4750 6990 c0 -5 5 -10 10 -10 6 0 10 5 10 10 0 6 -4 10 -10 10 -5 0
-10 -4 -10 -10z"/>
<path d="M1013 6903 c-47 -9 -21 -23 42 -23 68 0 87 13 34 24 -33 6 -39 6 -76
-1z"/>
<path d="M862 6857 c-42 -43 -53 -67 -29 -67 19 0 100 87 93 99 -11 18 -19 13
-64 -32z"/>
<path d="M780 6825 l0 -55 60 0 c57 0 60 1 60 25 0 14 -4 25 -10 25 -5 0 -10
-9 -10 -20 0 -17 -7 -20 -40 -20 l-40 0 0 44 c0 43 1 45 33 49 28 3 26 4 -10
5 l-43 2 0 -55z"/>
<path d="M1000 6831 c0 -62 7 -71 55 -71 48 0 55 9 55 71 l0 39 -55 0 -55 0 0
-39z"/>
<path d="M1300 6855 c-10 -12 -10 -18 0 -30 7 -8 19 -15 26 -15 8 0 14 -9 14
-20 0 -25 -37 -27 -43 -2 -3 13 -4 12 -3 -3 1 -14 8 -20 26 -20 23 0 25 3 25
50 0 53 -19 71 -45 40z m36 -6 c10 -17 -13 -36 -27 -22 -12 12 -4 33 11 33 5
0 12 -5 16 -11z"/>
<path d="M1609 6853 c-8 -10 -9 -14 -2 -10 8 5 13 -7 16 -40 3 -48 3 -48 5 10
1 31 0 57 -2 57 -2 0 -10 -8 -17 -17z"/>
<path d="M1675 6847 c-4 -14 -5 -38 -3 -53 2 -23 8 -29 27 -29 45 0 48 97 3
103 -16 2 -23 -3 -27 -21z m40 -33 c0 -28 -4 -39 -15 -39 -16 0 -26 45 -16 72
11 28 31 7 31 -33z"/>
<path d="M1761 6856 c-17 -21 -9 -77 12 -90 15 -9 21 -7 33 8 37 50 -7 128
-45 82z m45 -20 c8 -31 -3 -66 -21 -66 -8 0 -17 9 -20 21 -9 29 2 69 20 69 8
0 17 -11 21 -24z"/>
<path d="M1841 6856 c-17 -21 -9 -77 12 -90 15 -9 21 -7 33 8 37 50 -7 128
-45 82z m45 -20 c8 -31 -3 -66 -21 -66 -8 0 -17 9 -20 21 -9 29 2 69 20 69 8
0 17 -11 21 -24z"/>
<path d="M2592 6830 c-1 -29 1 -40 7 -31 6 9 11 10 15 2 4 -6 12 -11 18 -11 6
0 6 6 -2 15 -11 13 -9 20 11 43 24 27 24 27 -8 -2 l-31 -28 -5 28 c-3 20 -4
15 -5 -16z"/>
<path d="M2763 6830 c0 -25 2 -35 4 -22 2 12 2 32 0 45 -2 12 -4 2 -4 -23z"/>
<path d="M4090 6830 c0 -30 4 -40 16 -40 11 0 14 5 10 16 -3 9 -6 27 -6 40 0
13 -4 24 -10 24 -5 0 -10 -18 -10 -40z"/>
<path d="M4266 6851 c-10 -11 -16 -29 -13 -43 4 -22 4 -22 6 3 1 31 18 49 46
49 32 0 48 -15 48 -45 0 -19 2 -23 8 -14 13 20 11 27 -11 49 -25 25 -62 26
-84 1z"/>
<path d="M4723 6830 c0 -25 2 -35 4 -22 2 12 2 32 0 45 -2 12 -4 2 -4 -23z"/>
<path d="M5909 6853 c-8 -10 -9 -14 -2 -10 8 5 13 -3 16 -25 3 -29 4 -28 5 10
2 47 0 49 -19 25z"/>
<path d="M5974 6856 c-10 -27 1 -49 29 -57 27 -7 28 -7 25 29 -2 30 -8 38 -26
40 -13 2 -24 -3 -28 -12z m43 -12 c8 -21 -13 -42 -28 -27 -13 13 -5 43 11 43
6 0 13 -7 17 -16z"/>
<path d="M6100 6855 c-17 -20 -3 -52 25 -57 13 -3 22 -2 20 3 -3 4 0 9 6 11
15 5 -7 58 -25 58 -7 0 -19 -7 -26 -15z m40 -20 c0 -25 -23 -35 -35 -15 -10
16 2 40 20 40 9 0 15 -9 15 -25z"/>
<path d="M6198 6863 c26 -5 28 -29 5 -57 l-18 -21 23 19 c30 26 26 60 -8 63
-22 1 -22 1 -2 -4z"/>
<path d="M6260 6845 c0 -18 5 -25 20 -25 11 0 20 -7 20 -15 0 -8 5 -15 10 -15
7 0 7 6 0 20 -6 11 -17 20 -25 20 -24 0 -17 28 8 33 19 4 18 4 -5 6 -24 1 -28
-3 -28 -24z"/>
<path d="M6350 6855 c-6 -8 -9 -19 -5 -25 3 -5 1 -10 -4 -10 -6 0 -11 -7 -11
-15 0 -8 5 -15 10 -15 6 0 10 7 10 15 0 21 26 19 40 -2 11 -17 11 -17 6 0 -3
10 -6 21 -6 23 0 2 -9 4 -20 4 -27 0 -25 18 3 30 15 6 17 9 6 9 -9 1 -22 -6
-29 -14z"/>
<path d="M6420 6845 c0 -18 5 -25 20 -25 11 0 20 -7 20 -15 0 -8 5 -15 10 -15
7 0 7 6 0 20 -6 11 -17 20 -25 20 -24 0 -17 28 8 33 19 4 18 4 -5 6 -24 1 -28
-3 -28 -24z"/>
<path d="M6512 6858 c-7 -7 -12 -26 -12 -42 1 -26 2 -28 11 -13 12 21 36 22
42 2 4 -11 4 -10 3 2 -1 12 -10 18 -24 17 -31 -1 -25 28 8 37 21 6 22 7 5 8
-12 1 -26 -4 -33 -11z"/>
<path d="M6598 6863 c6 -2 18 -2 25 0 6 3 1 5 -13 5 -14 0 -19 -2 -12 -5z"/>
<path d="M6909 6853 c-8 -10 -9 -14 -2 -10 8 5 13 -3 16 -25 3 -29 4 -28 5 10
2 47 0 49 -19 25z"/>
<path d="M6580 6838 c0 -11 8 -18 20 -18 10 0 24 -8 30 -17 7 -11 10 -12 7 -4
-2 8 -12 19 -23 25 -10 6 -22 16 -26 21 -4 6 -8 2 -8 -7z"/>
<path d="M2682 6828 c-23 -23 -14 -38 21 -31 41 8 43 9 27 28 -15 18 -32 19
-48 3z m43 -8 c4 -6 -5 -10 -20 -10 -15 0 -24 4 -20 10 3 6 12 10 20 10 8 0
17 -4 20 -10z"/>
<path d="M2787 6820 c3 -11 10 -23 16 -27 7 -4 8 0 4 11 -4 10 -7 22 -7 27 0
5 -4 9 -9 9 -5 0 -7 -9 -4 -20z"/>
<path d="M2833 6823 c-3 -10 -8 -21 -10 -25 -2 -5 0 -8 5 -8 5 0 12 11 14 25
6 29 0 33 -9 8z"/>
<path d="M2872 6815 c0 -16 2 -22 5 -12 2 9 2 23 0 30 -3 6 -5 -1 -5 -18z"/>
<path d="M2901 6811 c0 -26 0 -26 9 -3 5 12 16 22 24 22 8 0 17 -10 19 -22 5
-20 5 -20 4 2 -2 20 -8 25 -29 26 -24 1 -28 -3 -27 -25z"/>
<path d="M4125 6829 c-11 -17 1 -21 15 -4 8 9 8 15 2 15 -6 0 -14 -5 -17 -11z"/>
<path d="M4172 6828 c-23 -23 -14 -38 21 -31 40 7 39 7 31 27 -7 19 -35 21
-52 4z m43 -8 c3 -5 -3 -10 -14 -10 -12 0 -21 5 -21 10 0 6 6 10 14 10 8 0 18
-4 21 -10z"/>
<path d="M4284 6825 c-3 -8 -4 -20 -1 -27 3 -7 6 -3 6 10 1 13 7 22 17 22 11
0 15 -6 11 -20 -3 -11 -1 -20 4 -20 5 0 9 11 9 25 0 18 -5 25 -20 25 -11 0
-23 -7 -26 -15z"/>
<path d="M4393 6823 c-3 -10 -8 -21 -10 -25 -2 -5 0 -8 5 -8 5 0 12 9 15 20 7
27 35 25 40 -2 4 -20 4 -19 6 5 1 23 -3 27 -24 27 -15 0 -28 -7 -32 -17z"/>
<path d="M4481 6811 c0 -26 0 -26 9 -3 12 27 30 29 30 2 0 -11 5 -20 10 -20 6
0 10 9 10 20 0 25 27 27 33 3 3 -14 4 -13 3 2 -1 17 -8 20 -48 21 -45 1 -48
-1 -47 -25z"/>
<path d="M4610 6832 c0 -6 9 -8 20 -5 30 8 24 -12 -7 -23 l-28 -10 33 0 c27 1
32 5 30 21 -3 20 -48 36 -48 17z"/>
<path d="M4680 6815 c0 -14 5 -25 10 -25 6 0 10 11 10 25 0 14 -4 25 -10 25
-5 0 -10 -11 -10 -25z"/>
<path d="M4790 6819 c-7 -11 -9 -23 -6 -26 3 -3 9 2 12 11 4 10 16 22 28 26
21 9 21 9 -1 9 -13 1 -27 -8 -33 -20z"/>
<path d="M4860 6825 c-6 -8 -10 -20 -7 -27 4 -8 8 -5 12 10 9 28 45 30 45 2 0
-11 5 -20 10 -20 13 0 13 6 0 31 -13 23 -43 25 -60 4z"/>
<path d="M4947 6813 c-5 -28 9 -31 16 -3 7 27 27 25 28 -2 l0 -23 11 23 c6 12
15 22 20 22 5 0 13 -10 18 -22 10 -23 10 -23 7 2 -2 23 -6 25 -49 26 -41 1
-47 -2 -51 -23z"/>
<path d="M1013 6673 c-47 -9 -21 -23 42 -23 68 0 87 13 34 24 -33 6 -39 6 -76
-1z"/>
<path d="M862 6627 c-42 -43 -53 -67 -29 -67 19 0 100 87 93 99 -11 18 -19 13
-64 -32z"/>
<path d="M780 6595 l0 -55 60 0 c57 0 60 1 60 25 0 14 -4 25 -10 25 -5 0 -10
-9 -10 -20 0 -17 -7 -20 -40 -20 l-40 0 0 44 c0 43 1 45 33 49 28 3 26 4 -10
5 l-43 2 0 -55z"/>
<path d="M1000 6601 c0 -62 7 -71 55 -71 48 0 55 9 55 71 l0 39 -55 0 -55 0 0
-39z"/>
<path d="M1294 6616 c-7 -30 1 -46 24 -46 14 0 13 2 -3 14 -12 8 -16 19 -12
30 11 29 32 12 35 -27 3 -31 -1 -39 -20 -46 -15 -7 -17 -10 -7 -10 26 -1 41
24 37 66 -2 30 -7 39 -25 41 -17 3 -24 -3 -29 -22z"/>
<path d="M1596 6632 c-3 -5 4 -8 16 -8 31 1 33 -20 4 -45 -36 -31 -33 -49 7
-48 31 2 31 2 3 6 l-28 5 27 28 c15 15 25 36 23 47 -3 19 -42 31 -52 15z"/>
<path d="M1675 6617 c-4 -14 -5 -38 -3 -53 2 -23 8 -29 27 -29 45 0 48 97 3
103 -16 2 -23 -3 -27 -21z m40 -33 c0 -28 -4 -39 -15 -39 -16 0 -26 45 -16 72
11 28 31 7 31 -33z"/>
<path d="M1761 6626 c-17 -21 -9 -77 12 -90 15 -9 21 -7 33 8 37 50 -7 128
-45 82z m45 -20 c8 -31 -3 -66 -21 -66 -8 0 -17 9 -20 21 -9 29 2 69 20 69 8
0 17 -11 21 -24z"/>
<path d="M1841 6626 c-17 -21 -9 -77 12 -90 15 -9 21 -7 33 8 37 50 -7 128
-45 82z m45 -20 c8 -31 -3 -66 -21 -66 -8 0 -17 9 -20 21 -9 29 2 69 20 69 8
0 17 -11 21 -24z"/>
<path d="M1013 6453 c-47 -9 -21 -23 42 -23 68 0 87 13 34 24 -33 6 -39 6 -76
-1z"/>
<path d="M862 6407 c-42 -43 -53 -67 -29 -67 19 0 100 87 93 99 -11 18 -19 13
-64 -32z"/>
<path d="M780 6375 l0 -55 60 0 c57 0 60 1 60 25 0 14 -4 25 -10 25 -5 0 -10
-9 -10 -20 0 -17 -7 -20 -40 -20 l-40 0 0 44 c0 43 1 45 33 49 28 3 26 4 -10
5 l-43 2 0 -55z"/>
<path d="M5740 6423 c0 -5 7 -17 15 -27 13 -17 13 -23 -1 -44 -9 -13 -13 -27
-9 -30 6 -6 18 8 29 33 4 9 21 -8 29 -30 3 -5 8 -7 12 -3 4 4 1 18 -8 32 -14
20 -14 26 -2 42 16 22 19 34 7 34 -5 0 -13 -10 -19 -22 l-10 -23 -12 23 c-11
21 -31 31 -31 15z"/>
<path d="M1000 6381 c0 -62 7 -71 55 -71 48 0 55 9 55 71 l0 39 -55 0 -55 0 0
-39z"/>
<path d="M1309 6403 c-8 -10 -9 -14 -2 -10 8 5 13 -7 16 -40 3 -48 3 -48 5 10
1 31 0 57 -2 57 -2 0 -10 -8 -17 -17z"/>
<path d="M1382 6408 c-15 -15 -16 -70 0 -86 7 -7 19 -12 28 -11 9 0 6 4 -8 10
-19 7 -23 15 -20 46 2 26 8 39 20 41 13 3 18 -6 21 -37 l4 -41 -1 42 c-1 45
-20 60 -44 36z"/>
<path d="M1596 6412 c-3 -5 4 -8 16 -8 31 1 33 -20 4 -45 -36 -31 -33 -49 7
-48 31 2 31 2 3 6 l-28 5 27 28 c15 15 25 36 23 47 -3 19 -42 31 -52 15z"/>
<path d="M1675 6397 c-4 -14 -5 -38 -3 -53 2 -23 8 -29 27 -29 45 0 48 97 3
103 -16 2 -23 -3 -27 -21z m40 -33 c0 -28 -4 -39 -15 -39 -16 0 -26 45 -16 72
11 28 31 7 31 -33z"/>
<path d="M1761 6406 c-17 -21 -9 -77 12 -90 15 -9 21 -7 33 8 37 50 -7 128
-45 82z m45 -20 c8 -31 -3 -66 -21 -66 -8 0 -17 9 -20 21 -9 29 2 69 20 69 8
0 17 -11 21 -24z"/>
<path d="M1841 6406 c-17 -21 -9 -77 12 -90 15 -9 21 -7 33 8 37 50 -7 128
-45 82z m45 -20 c8 -31 -3 -66 -21 -66 -8 0 -17 9 -20 21 -9 29 2 69 20 69 8
0 17 -11 21 -24z"/>
<path d="M1013 6113 c-47 -9 -21 -23 42 -23 68 0 87 13 34 24 -33 6 -39 6 -76
-1z"/>
<path d="M862 6067 c-42 -43 -53 -67 -29 -67 19 0 100 87 93 99 -11 18 -19 13
-64 -32z"/>
<path d="M780 6035 l0 -55 60 0 c57 0 60 1 60 25 0 14 -4 25 -10 25 -5 0 -10
-9 -10 -20 0 -17 -7 -20 -40 -20 l-40 0 0 44 c0 43 1 45 33 49 28 3 26 4 -10
5 l-43 2 0 -55z"/>
<path d="M1000 6041 c0 -62 7 -71 55 -71 48 0 55 9 55 71 l0 39 -55 0 -55 0 0
-39z"/>
<path d="M1309 6063 c-8 -10 -9 -14 -2 -10 8 5 13 -7 16 -40 3 -48 3 -48 5 10
1 31 0 57 -2 57 -2 0 -10 -8 -17 -17z"/>
<path d="M1389 6063 c-8 -10 -9 -14 -2 -10 8 5 13 -7 16 -40 3 -48 3 -48 5 10
1 31 0 57 -2 57 -2 0 -10 -8 -17 -17z"/>
<path d="M1600 6061 c-21 -40 -6 -91 27 -91 7 0 17 9 23 21 14 26 -5 53 -32
45 -27 -6 -17 16 13 31 24 12 24 13 2 13 -12 0 -27 -9 -33 -19z m40 -56 c0
-25 -23 -35 -35 -15 -10 16 2 40 20 40 9 0 15 -9 15 -25z"/>
<path d="M1675 6057 c-4 -14 -5 -38 -3 -53 2 -23 8 -29 27 -29 45 0 48 97 3
103 -16 2 -23 -3 -27 -21z m40 -33 c0 -28 -4 -39 -15 -39 -16 0 -26 45 -16 72
11 28 31 7 31 -33z"/>
<path d="M1761 6066 c-17 -21 -9 -77 12 -90 15 -9 21 -7 33 8 37 50 -7 128
-45 82z m45 -20 c8 -31 -3 -66 -21 -66 -8 0 -17 9 -20 21 -9 29 2 69 20 69 8
0 17 -11 21 -24z"/>
<path d="M1841 6066 c-17 -21 -9 -77 12 -90 15 -9 21 -7 33 8 37 50 -7 128
-45 82z m45 -20 c8 -31 -3 -66 -21 -66 -8 0 -17 9 -20 21 -9 29 2 69 20 69 8
0 17 -11 21 -24z"/>
<path d="M5680 5835 c0 -33 -2 -35 -25 -29 -33 8 -65 -20 -65 -57 0 -40 22
-57 75 -57 l45 1 0 89 c0 72 -3 88 -15 88 -10 0 -15 -11 -15 -35z m-5 -65 c11
-18 -6 -50 -25 -50 -24 0 -33 15 -25 40 7 21 39 27 50 10z"/>
<path d="M5744 5859 c-10 -17 13 -36 27 -22 12 12 4 33 -11 33 -5 0 -12 -5
-16 -11z"/>
<path d="M5470 5775 l0 -85 50 0 c38 0 50 4 50 15 0 10 -10 15 -30 15 -23 0
-30 4 -30 20 0 15 7 20 25 20 16 0 25 6 25 15 0 9 -9 15 -25 15 -18 0 -25 5
-25 20 0 15 7 20 25 20 16 0 25 6 25 15 0 11 -12 15 -45 15 l-45 0 0 -85z"/>
<path d="M5833 5843 c-7 -3 -13 -11 -13 -19 0 -8 -4 -14 -10 -14 -5 0 -10 -7
-10 -15 0 -8 5 -15 10 -15 6 0 10 -18 10 -39 0 -38 11 -51 46 -51 19 0 18 26
-1 34 -8 3 -15 17 -15 31 0 16 6 25 15 25 8 0 15 7 15 15 0 8 -6 15 -14 15 -8
0 -16 8 -18 18 -2 11 -9 17 -15 15z"/>
<path d="M5740 5750 c0 -53 2 -60 20 -60 18 0 20 7 20 60 0 53 -2 60 -20 60
-18 0 -20 -7 -20 -60z"/>
<path d="M5917 5803 c-17 -17 -5 -29 26 -26 l32 3 -35 -13 c-26 -10 -36 -20
-38 -40 -4 -32 21 -46 49 -28 12 7 19 7 19 1 0 -5 7 -10 15 -10 19 0 21 90 3
108 -13 13 -60 16 -71 5z m53 -63 c0 -12 -28 -25 -36 -17 -9 9 6 27 22 27 8 0
14 -5 14 -10z"/>
<path d="M6030 5749 c0 -52 2 -59 20 -59 17 0 20 7 20 41 0 32 4 42 20 46 36
10 23 31 -20 31 l-40 1 0 -60z"/>
<path d="M1013 5773 c-47 -9 -21 -23 42 -23 68 0 87 13 34 24 -33 6 -39 6 -76
-1z"/>
<path d="M862 5727 c-42 -43 -53 -67 -29 -67 19 0 100 87 93 99 -11 18 -19 13
-64 -32z"/>
<path d="M780 5695 l0 -55 60 0 c57 0 60 1 60 25 0 14 -4 25 -10 25 -5 0 -10
-9 -10 -20 0 -17 -7 -20 -40 -20 l-40 0 0 44 c0 43 1 45 33 49 28 3 26 4 -10
5 l-43 2 0 -55z"/>
<path d="M1000 5701 c0 -62 7 -71 55 -71 48 0 55 9 55 71 l0 39 -55 0 -55 0 0
-39z"/>
<path d="M1309 5723 c-8 -10 -9 -14 -2 -10 8 5 13 -7 16 -40 3 -48 3 -48 5 10
1 31 0 57 -2 57 -2 0 -10 -8 -17 -17z"/>
<path d="M1376 5731 c-4 -5 3 -7 14 -4 31 8 38 -26 11 -49 -13 -10 -19 -18
-14 -18 20 0 45 39 38 59 -6 21 -39 29 -49 12z"/>
<path d="M1596 5724 c-3 -9 -1 -23 5 -30 9 -11 9 -14 0 -14 -7 0 -11 -10 -9
-22 2 -17 10 -23 28 -23 23 0 25 3 25 50 0 43 -3 50 -21 53 -13 2 -24 -4 -28
-14z m40 -5 c10 -17 -13 -36 -27 -22 -12 12 -4 33 11 33 5 0 12 -5 16 -11z m4
-59 c0 -11 -6 -20 -14 -20 -18 0 -29 16 -21 30 11 18 35 11 35 -10z"/>
<path d="M1675 5717 c-4 -14 -5 -38 -3 -53 2 -23 8 -29 27 -29 45 0 48 97 3
103 -16 2 -23 -3 -27 -21z m40 -33 c0 -28 -4 -39 -15 -39 -16 0 -26 45 -16 72
11 28 31 7 31 -33z"/>
<path d="M1761 5726 c-17 -21 -9 -77 12 -90 15 -9 21 -7 33 8 37 50 -7 128
-45 82z m45 -20 c8 -31 -3 -66 -21 -66 -8 0 -17 9 -20 21 -9 29 2 69 20 69 8
0 17 -11 21 -24z"/>
<path d="M1841 5726 c-17 -21 -9 -77 12 -90 15 -9 21 -7 33 8 37 50 -7 128
-45 82z m45 -20 c8 -31 -3 -66 -21 -66 -8 0 -17 9 -20 21 -9 29 2 69 20 69 8
0 17 -11 21 -24z"/>
<path d="M1370 5638 c0 -4 14 -8 30 -8 17 0 30 2 30 4 0 2 -13 6 -30 8 -16 3
-30 1 -30 -4z"/>
<path d="M1013 5553 c-47 -9 -21 -23 42 -23 68 0 87 13 34 24 -33 6 -39 6 -76
-1z"/>
<path d="M862 5507 c-42 -43 -53 -67 -29 -67 19 0 100 87 93 99 -11 18 -19 13
-64 -32z"/>
<path d="M780 5475 l0 -55 60 0 c57 0 60 1 60 25 0 14 -4 25 -10 25 -5 0 -10
-9 -10 -20 0 -17 -7 -20 -40 -20 l-40 0 0 44 c0 43 1 45 33 49 28 3 26 4 -10
5 l-43 2 0 -55z"/>
<path d="M1000 5481 c0 -62 7 -71 55 -71 48 0 55 9 55 71 l0 39 -55 0 -55 0 0
-39z"/>
<path d="M1309 5503 c-8 -10 -9 -14 -2 -10 8 5 13 -7 16 -40 3 -48 3 -48 5 10
1 31 0 57 -2 57 -2 0 -10 -8 -17 -17z"/>
<path d="M1390 5513 c8 -3 22 -11 30 -17 13 -10 13 -9 1 7 -7 9 -21 17 -30 16
-13 0 -14 -1 -1 -6z"/>
<path d="M1596 5504 c-3 -9 -1 -23 5 -30 9 -11 9 -14 0 -14 -7 0 -11 -10 -9
-22 2 -17 10 -23 28 -23 23 0 25 3 25 50 0 43 -3 50 -21 53 -13 2 -24 -4 -28
-14z m40 -5 c10 -17 -13 -36 -27 -22 -12 12 -4 33 11 33 5 0 12 -5 16 -11z m4
-59 c0 -11 -6 -20 -14 -20 -18 0 -29 16 -21 30 11 18 35 11 35 -10z"/>
<path d="M1675 5497 c-4 -14 -5 -38 -3 -53 2 -23 8 -29 27 -29 45 0 48 97 3
103 -16 2 -23 -3 -27 -21z m40 -33 c0 -28 -4 -39 -15 -39 -16 0 -26 45 -16 72
11 28 31 7 31 -33z"/>
<path d="M1761 5506 c-17 -21 -9 -77 12 -90 15 -9 21 -7 33 8 37 50 -7 128
-45 82z m45 -20 c8 -31 -3 -66 -21 -66 -8 0 -17 9 -20 21 -9 29 2 69 20 69 8
0 17 -11 21 -24z"/>
<path d="M1841 5506 c-17 -21 -9 -77 12 -90 15 -9 21 -7 33 8 37 50 -7 128
-45 82z m45 -20 c8 -31 -3 -66 -21 -66 -8 0 -17 9 -20 21 -9 29 2 69 20 69 8
0 17 -11 21 -24z"/>
<path d="M1396 5471 c-19 -7 -19 -8 3 -14 28 -7 22 -32 -8 -31 -11 0 -21 -3
-21 -8 0 -14 37 -9 50 7 9 11 10 18 1 28 -6 8 -8 17 -4 20 8 8 4 8 -21 -2z"/>
<path d="M4364 5367 c-3 -8 -4 -54 -2 -103 l3 -89 385 0 385 0 0 100 0 100
-383 3 c-312 2 -383 0 -388 -11z m766 -92 l0 -95 -380 0 -380 0 0 95 0 95 380
0 380 0 0 -95z"/>
<path d="M4410 5322 c0 -6 9 -8 20 -5 28 8 26 -19 -6 -56 l-26 -31 34 1 c25 1
27 3 10 6 l-24 5 22 23 c27 28 23 59 -8 63 -12 2 -22 -1 -22 -6z"/>
<path d="M4484 5317 c-3 -8 -4 -30 -2 -49 2 -25 8 -33 23 -33 17 0 20 7 20 45
0 35 -4 45 -18 48 -9 2 -20 -3 -23 -11z m34 -41 c-2 -15 -7 -28 -13 -29 -12
-2 -19 38 -10 60 9 25 27 1 23 -31z"/>
<path d="M4558 5305 c-12 -27 2 -75 22 -75 20 0 34 48 22 75 -6 14 -16 25 -22
25 -6 0 -16 -11 -22 -25z m35 -5 c6 -23 -2 -60 -13 -60 -11 0 -19 37 -13 60 3
11 9 20 13 20 4 0 10 -9 13 -20z"/>
<path d="M4634 5317 c-3 -8 -4 -30 -2 -49 2 -25 8 -33 23 -33 17 0 20 7 20 45
0 35 -4 45 -18 48 -9 2 -20 -3 -23 -11z m34 -41 c-2 -15 -7 -28 -13 -29 -12
-2 -19 38 -10 60 9 25 27 1 23 -31z"/>
<path d="M1013 5323 c-47 -9 -21 -23 42 -23 68 0 87 13 34 24 -33 6 -39 6 -76
-1z"/>
<path d="M862 5277 c-42 -43 -53 -67 -29 -67 19 0 100 87 93 99 -11 18 -19 13
-64 -32z"/>
<path d="M780 5245 l0 -55 60 0 c57 0 60 1 60 25 0 14 -4 25 -10 25 -5 0 -10
-9 -10 -20 0 -17 -7 -20 -40 -20 l-40 0 0 44 c0 43 1 45 33 49 28 3 26 4 -10
5 l-43 2 0 -55z"/>
<path d="M1000 5251 c0 -62 7 -71 55 -71 48 0 55 9 55 71 l0 39 -55 0 -55 0 0
-39z"/>
<path d="M1309 5273 c-8 -10 -9 -14 -2 -10 8 5 13 -7 16 -40 3 -48 3 -48 5 10
1 31 0 57 -2 57 -2 0 -10 -8 -17 -17z"/>
<path d="M1387 5252 l-27 -42 24 0 c15 0 26 -7 29 -17 4 -17 5 -17 6 0 0 9 7
17 14 17 9 0 9 2 0 8 -6 4 -13 23 -15 42 l-3 34 -28 -42z m23 -12 c0 -11 -7
-20 -15 -20 -13 0 -14 4 -5 20 6 11 13 20 15 20 3 0 5 -9 5 -20z"/>
<path d="M1600 5271 c-21 -40 -6 -91 27 -91 7 0 17 9 23 21 14 26 -5 53 -32
45 -27 -6 -17 16 13 31 24 12 24 13 2 13 -12 0 -27 -9 -33 -19z m40 -56 c0
-25 -23 -35 -35 -15 -10 16 2 40 20 40 9 0 15 -9 15 -25z"/>
<path d="M1680 5266 c0 -16 7 -26 21 -29 28 -8 21 -42 -9 -41 -12 0 -22 -3
-22 -8 0 -9 22 -11 44 -2 24 9 20 55 -4 61 -27 7 -25 31 3 36 19 4 18 4 -5 6
-23 1 -28 -3 -28 -23z"/>
<path d="M1760 5266 c0 -15 7 -26 20 -29 27 -7 25 -35 -2 -47 -23 -10 -23 -10
2 -7 34 3 43 56 11 64 -28 7 -27 31 2 36 19 4 18 4 -5 6 -23 1 -28 -3 -28 -23z"/>
<path d="M2814 5127 c-3 -8 -4 -54 -2 -103 l3 -89 1935 0 1935 0 0 100 0 100
-1933 3 c-1602 2 -1933 0 -1938 -11z m3866 -92 l0 -95 -1930 0 -1930 0 0 95 0
95 1930 0 1930 0 0 -95z"/>
<path d="M2892 5048 c-2 -49 -9 -57 -31 -35 -10 10 -11 9 -6 -5 8 -21 33 -24
41 -4 3 8 4 31 1 52 -3 37 -4 37 -5 -8z"/>
<path d="M3000 5082 c0 -4 9 -8 20 -9 11 -1 20 2 20 5 0 4 -9 8 -20 9 -11 1
-20 -2 -20 -5z"/>
<path d="M2925 5041 c-8 -26 4 -51 25 -51 10 0 21 7 24 16 10 25 -3 54 -24 54
-10 0 -21 -8 -25 -19z m42 -7 c8 -21 -13 -42 -28 -27 -13 13 -5 43 11 43 6 0
13 -7 17 -16z"/>
<path d="M3006 5051 c-3 -5 3 -7 14 -4 11 3 20 0 20 -6 0 -6 -9 -11 -20 -11
-13 0 -20 -7 -20 -20 0 -15 6 -19 25 -18 22 2 26 7 23 33 -3 30 -30 47 -42 26z
m29 -41 c-3 -5 -10 -10 -16 -10 -5 0 -9 5 -9 10 0 6 7 10 16 10 8 0 12 -4 9
-10z"/>
<path d="M3075 5041 c-8 -26 4 -51 25 -51 10 0 21 7 24 16 10 25 -3 54 -24 54
-10 0 -21 -8 -25 -19z m42 -7 c8 -21 -13 -42 -28 -27 -13 13 -5 43 11 43 6 0
13 -7 17 -16z"/>
<path d="M1013 5103 c-47 -9 -21 -23 42 -23 68 0 87 13 34 24 -33 6 -39 6 -76
-1z"/>
<path d="M862 5057 c-42 -43 -53 -67 -29 -67 19 0 100 87 93 99 -11 18 -19 13
-64 -32z"/>
<path d="M780 5025 l0 -55 60 0 c57 0 60 1 60 25 0 14 -4 25 -10 25 -5 0 -10
-9 -10 -20 0 -17 -7 -20 -40 -20 l-40 0 0 44 c0 43 1 45 33 49 28 3 26 4 -10
5 l-43 2 0 -55z"/>
<path d="M1000 5031 c0 -62 7 -71 55 -71 48 0 55 9 55 71 l0 39 -55 0 -55 0 0
-39z"/>
<path d="M1309 5053 c-8 -10 -9 -14 -2 -10 8 5 13 -7 16 -40 3 -48 3 -48 5 10
1 31 0 57 -2 57 -2 0 -10 -8 -17 -17z"/>
<path d="M1380 5046 c0 -16 7 -26 21 -29 28 -8 21 -39 -11 -48 -21 -6 -22 -7
-4 -8 41 -2 63 56 24 66 -25 7 -26 30 -2 36 13 4 11 5 -5 6 -18 1 -23 -4 -23
-23z"/>
<path d="M1600 5051 c-21 -40 -6 -91 27 -91 7 0 17 9 23 21 14 26 -5 53 -32
45 -27 -6 -17 16 13 31 24 12 24 13 2 13 -12 0 -27 -9 -33 -19z m40 -56 c0
-25 -23 -35 -35 -15 -10 16 2 40 20 40 9 0 15 -9 15 -25z"/>
<path d="M1680 5046 c0 -16 7 -26 21 -29 28 -8 21 -42 -9 -41 -12 0 -22 -3
-22 -8 0 -9 22 -11 44 -2 24 9 20 55 -4 61 -27 7 -25 31 3 36 19 4 18 4 -5 6
-23 1 -28 -3 -28 -23z"/>
<path d="M1760 5046 c0 -15 7 -26 20 -29 27 -7 25 -35 -2 -47 -23 -10 -23 -10
2 -7 34 3 43 56 11 64 -28 7 -27 31 2 36 19 4 18 4 -5 6 -23 1 -28 -3 -28 -23z"/>
<path d="M2814 4887 c-3 -8 -4 -54 -2 -103 l3 -89 1935 0 1935 0 0 100 0 100
-1933 3 c-1602 2 -1933 0 -1938 -11z m3866 -92 l0 -95 -1930 0 -1930 0 0 95 0
95 1930 0 1930 0 0 -95z"/>
<path d="M2980 4830 c-11 -11 -20 -33 -20 -48 0 -53 60 -80 104 -47 24 18 14
20 -14 3 -13 -9 -27 -9 -47 -2 -52 18 -35 111 19 102 10 -2 18 -7 18 -13 -1
-5 -9 -9 -20 -7 -22 4 -43 -29 -34 -52 7 -19 55 -21 72 -4 19 19 15 66 -7 78
-29 15 -49 12 -71 -10z m76 -56 c-3 -8 -10 -14 -15 -14 -10 0 -9 9 6 48 6 16
6 16 10 -1 3 -10 2 -25 -1 -33z m-26 17 c0 -24 -18 -37 -31 -24 -13 13 -1 43
17 43 8 0 14 -9 14 -19z"/>
<path d="M3350 4840 c0 -5 5 -10 10 -10 6 0 10 5 10 10 0 6 -4 10 -10 10 -5 0
-10 -4 -10 -10z"/>
<path d="M3380 4800 c0 -27 5 -50 10 -50 6 0 10 23 10 50 0 28 -4 50 -10 50
-5 0 -10 -22 -10 -50z"/>
<path d="M2860 4773 c-3 -29 -1 -48 3 -44 5 5 7 28 5 52 l-3 44 -5 -52z"/>
<path d="M2890 4805 c-17 -21 -2 -50 26 -50 14 0 19 7 19 30 0 34 -24 45 -45
20z m37 -11 c8 -22 -15 -44 -26 -25 -10 16 -4 41 10 41 5 0 12 -7 16 -16z"/>
<path d="M3095 4801 c-8 -27 4 -51 27 -51 11 0 16 -4 13 -11 -4 -6 -13 -8 -21
-5 -8 3 -14 1 -14 -5 0 -6 10 -9 23 -7 19 3 22 10 25 51 3 44 2 47 -22 47 -15
0 -27 -7 -31 -19z m42 -7 c8 -22 -15 -44 -26 -25 -10 16 -4 41 10 41 5 0 12
-7 16 -16z"/>
<path d="M3171 4783 c1 -35 2 -36 8 -9 9 42 29 44 34 4 l5 -33 -2 35 c-1 28
-5 36 -23 38 -21 3 -23 -1 -22 -35z"/>
<path d="M3237 4813 c6 -4 13 -22 16 -38 4 -27 5 -27 3 4 0 21 -7 36 -16 38
-10 3 -11 2 -3 -4z"/>
<path d="M3286 4811 c-4 -5 3 -7 14 -4 11 3 20 0 20 -6 0 -6 -9 -11 -20 -11
-13 0 -20 -7 -20 -20 0 -15 6 -19 25 -18 21 2 25 7 25 35 0 26 -4 33 -19 33
-11 0 -22 -4 -25 -9z m29 -41 c-3 -5 -10 -10 -16 -10 -5 0 -9 5 -9 10 0 6 7
10 16 10 8 0 12 -4 9 -10z"/>
<path d="M3350 4785 c0 -19 5 -35 10 -35 6 0 10 16 10 35 0 19 -4 35 -10 35
-5 0 -10 -16 -10 -35z"/>
<path d="M3457 4813 c-4 -3 -7 -17 -7 -30 0 -26 26 -41 42 -25 8 8 5 9 -11 5
-18 -4 -21 -1 -21 22 0 22 4 26 20 22 11 -3 18 -1 14 4 -6 11 -28 12 -37 2z"/>
<path d="M3524 4806 c-10 -26 0 -51 21 -51 16 0 20 7 20 30 0 33 -30 49 -41
21z m36 -21 c0 -16 -6 -25 -15 -25 -9 0 -15 9 -15 25 0 16 6 25 15 25 9 0 15
-9 15 -25z"/>
<path d="M3591 4782 c1 -35 2 -36 8 -8 9 43 31 45 32 4 l1 -33 7 29 c9 42 29
44 34 4 l4 -33 1 36 2 36 -45 1 -45 1 1 -37z"/>
<path d="M1013 4873 c-47 -9 -21 -23 42 -23 68 0 87 13 34 24 -33 6 -39 6 -76
-1z"/>
<path d="M862 4827 c-42 -43 -53 -67 -29 -67 19 0 100 87 93 99 -11 18 -19 13
-64 -32z"/>
<path d="M780 4795 l0 -55 60 0 c57 0 60 1 60 25 0 14 -4 25 -10 25 -5 0 -10
-9 -10 -20 0 -17 -7 -20 -40 -20 l-40 0 0 44 c0 43 1 45 33 49 28 3 26 4 -10
5 l-43 2 0 -55z"/>
<path d="M1000 4801 c0 -62 7 -71 55 -71 48 0 55 9 55 71 l0 39 -55 0 -55 0 0
-39z"/>
<path d="M1309 4823 c-8 -10 -9 -14 -2 -10 8 5 13 -7 16 -40 3 -48 3 -48 5 10
1 31 0 57 -2 57 -2 0 -10 -8 -17 -17z"/>
<path d="M1380 4821 c-15 -28 -12 -67 5 -81 17 -14 45 -7 45 12 0 10 -3 9 -9
-1 -11 -17 -41 -7 -41 14 0 21 30 31 42 14 8 -12 9 -11 5 1 -2 8 -14 15 -26
14 -11 0 -21 2 -21 5 1 14 16 29 35 34 18 4 18 5 -2 6 -13 0 -27 -7 -33 -18z"/>
<path d="M1600 4821 c-21 -40 -6 -91 27 -91 7 0 17 9 23 21 14 26 -5 53 -32
45 -27 -6 -17 16 13 31 24 12 24 13 2 13 -12 0 -27 -9 -33 -19z m40 -56 c0
-25 -23 -35 -35 -15 -10 16 2 40 20 40 9 0 15 -9 15 -25z"/>
<path d="M1680 4816 c0 -16 7 -26 21 -29 28 -8 21 -42 -9 -41 -12 0 -22 -3
-22 -8 0 -9 22 -11 44 -2 24 9 20 55 -4 61 -27 7 -25 31 3 36 19 4 18 4 -5 6
-23 1 -28 -3 -28 -23z"/>
<path d="M1760 4816 c0 -15 7 -26 20 -29 27 -7 25 -35 -2 -47 -23 -10 -23 -10
2 -7 34 3 43 56 11 64 -28 7 -27 31 2 36 19 4 18 4 -5 6 -23 1 -28 -3 -28 -23z"/>
<path d="M2814 4647 c-3 -8 -4 -54 -2 -103 l3 -89 1935 0 1935 0 0 100 0 100
-1933 3 c-1602 2 -1933 0 -1938 -11z m3866 -92 l0 -95 -1930 0 -1930 0 0 95 0
95 1930 0 1930 0 0 -95z"/>
<path d="M2876 4595 c-17 -13 -17 -15 -4 -15 12 0 18 -11 21 -37 3 -31 4 -29
5 15 1 28 1 52 0 52 -2 0 -12 -7 -22 -15z"/>
<path d="M2937 4603 c-15 -14 -6 -45 13 -50 24 -6 21 -29 -3 -27 -9 1 -14 -2
-11 -7 10 -17 35 -9 44 16 16 43 -17 95 -43 68z m33 -23 c0 -11 -7 -20 -15
-20 -8 0 -15 9 -15 20 0 11 7 20 15 20 8 0 15 -9 15 -20z"/>
<path d="M3050 4596 c0 -8 -3 -22 -6 -30 -5 -12 -1 -16 17 -14 16 2 24 -2 24
-12 0 -9 -9 -15 -22 -14 -12 0 -20 -3 -17 -8 10 -16 43 -8 49 12 8 24 -1 40
-21 40 -20 0 -18 28 4 33 13 4 11 5 -5 6 -14 1 -23 -5 -23 -13z"/>
<path d="M3120 4591 c-22 -42 0 -91 36 -77 25 9 14 51 -13 50 -25 -1 -27 4
-14 25 5 8 16 11 26 8 9 -4 14 -3 10 3 -10 16 -34 11 -45 -9z m36 -42 c10 -17
-13 -36 -27 -22 -12 12 -4 33 11 33 5 0 12 -5 16 -11z"/>
<path d="M3196 4594 c-11 -30 -7 -42 14 -37 16 4 20 0 20 -17 0 -17 -4 -21
-20 -17 -11 3 -18 1 -14 -4 9 -15 33 -10 43 9 11 21 -3 42 -26 42 -21 0 -15
20 10 30 22 9 22 9 1 9 -12 1 -25 -6 -28 -15z"/>
<path d="M3268 4580 c-4 -25 -1 -29 16 -27 13 1 21 -4 21 -13 0 -9 -9 -15 -23
-14 -14 0 -19 -3 -13 -9 16 -16 46 -3 49 21 3 17 -2 25 -17 29 -28 7 -27 30 2
36 20 4 19 4 -4 6 -22 1 -27 -4 -31 -29z"/>
<path d="M3344 4596 c-3 -8 -4 -29 -2 -48 2 -25 8 -33 23 -33 29 0 34 45 5 52
-24 6 -21 29 3 27 9 -1 14 2 11 7 -8 14 -34 11 -40 -5z m36 -56 c0 -11 -7 -20
-15 -20 -8 0 -15 9 -15 20 0 11 7 20 15 20 8 0 15 -9 15 -20z"/>
<path d="M3416 4601 c-3 -5 3 -7 14 -4 14 4 20 0 20 -11 0 -9 -5 -16 -12 -16
-6 0 -4 -6 7 -13 22 -17 11 -41 -16 -34 -11 3 -17 1 -13 -4 9 -16 42 -10 48 9
14 42 -28 106 -48 73z"/>
<path d="M3490 4602 c0 -6 9 -8 20 -5 28 8 26 -19 -6 -56 l-26 -31 34 1 c25 1
27 3 10 6 l-24 5 22 23 c27 28 23 59 -8 63 -12 2 -22 -1 -22 -6z"/>
<path d="M3566 4601 c-3 -5 3 -7 14 -4 27 7 27 -27 0 -52 -27 -25 -25 -35 8
-34 24 2 25 2 4 6 l-24 5 22 23 c12 13 20 31 18 41 -4 21 -33 31 -42 15z"/>
<path d="M3634 4599 c-4 -8 0 -9 15 -4 15 5 21 2 21 -9 0 -9 -5 -16 -12 -16
-6 0 -4 -6 7 -13 23 -18 11 -40 -18 -31 -17 5 -19 3 -11 -6 7 -6 20 -10 30 -8
14 3 19 12 19 38 0 19 -1 41 -3 48 -5 15 -38 16 -48 1z"/>
<path d="M2814 4407 c-3 -8 -4 -54 -2 -103 l3 -89 1935 0 1935 0 0 100 0 100
-1933 3 c-1602 2 -1933 0 -1938 -11z m3866 -92 l0 -95 -1930 0 -1930 0 0 95 0
95 1930 0 1930 0 0 -95z"/>
<path d="M2876 4355 c-17 -13 -17 -15 -4 -15 12 0 18 -11 21 -37 3 -31 4 -29
5 15 1 28 1 52 0 52 -2 0 -12 -7 -22 -15z"/>
<path d="M4783 4000 c0 -36 2 -50 4 -32 2 17 2 47 0 65 -2 17 -4 3 -4 -33z"/>
<path d="M4820 4050 c0 -5 5 -10 10 -10 6 0 10 5 10 10 0 6 -4 10 -10 10 -5 0
-10 -4 -10 -10z"/>
<path d="M4452 3998 c-21 -55 -20 -70 0 -50 16 16 55 15 61 0 2 -7 7 -10 11
-7 9 9 -26 101 -41 106 -6 2 -20 -19 -31 -49z m36 -17 c-15 -5 -21 7 -13 26 7
17 8 17 15 -2 4 -11 3 -22 -2 -24z"/>
<path d="M4548 4028 c-2 -7 -2 -29 2 -48 3 -24 11 -36 25 -38 16 -3 18 -1 8 9
-16 16 -17 59 -2 59 6 0 4 7 -5 15 -18 18 -23 19 -28 3z"/>
<path d="M4602 3983 c3 -35 6 -38 36 -40 31 -1 32 0 32 38 0 47 -17 52 -22 7
-2 -18 -7 -33 -13 -33 -5 0 -11 15 -13 33 -2 17 -8 32 -13 32 -6 0 -9 -17 -7
-37z"/>
<path d="M4700 4011 c0 -6 6 -8 14 -5 8 3 17 1 20 -4 3 -6 -6 -13 -20 -16 -38
-10 -28 -41 14 -43 32 -1 33 0 30 35 -3 32 -7 37 -30 40 -16 2 -28 -1 -28 -7z
m40 -40 c0 -12 -20 -25 -27 -18 -7 7 6 27 18 27 5 0 9 -4 9 -9z"/>
<path d="M4820 3980 c0 -22 5 -40 10 -40 6 0 10 18 10 40 0 22 -4 40 -10 40
-5 0 -10 -18 -10 -40z"/>
<path d="M4873 4013 c22 -6 21 -9 -4 -44 l-20 -29 38 1 c30 1 33 2 15 8 l-24
6 21 27 c28 35 27 38 -11 37 -18 -1 -25 -3 -15 -6z"/>
<path d="M4944 4009 c-4 -8 -3 -9 4 -5 7 4 17 4 23 0 7 -4 2 -11 -13 -18 -35
-17 -29 -41 10 -43 32 -1 33 0 30 35 -2 29 -8 38 -25 40 -11 2 -24 -2 -29 -9z
m36 -37 c0 -13 -12 -22 -22 -16 -10 6 -1 24 13 24 5 0 9 -4 9 -8z"/>
<path d="M5020 3980 c0 -22 5 -40 10 -40 6 0 10 13 10 30 0 17 7 33 18 39 14
9 13 10 -10 11 -26 0 -28 -3 -28 -40z"/>
<path d="M4900 2680 c0 -16 5 -30 10 -30 6 0 10 14 10 30 0 17 -4 30 -10 30
-5 0 -10 -13 -10 -30z"/>
<path d="M9283 2650 c-27 -11 -39 -53 -25 -85 11 -24 62 -42 82 -30 7 4 22 -3
35 -15 12 -12 26 -17 29 -12 3 5 -3 17 -14 27 -14 12 -17 25 -13 45 4 22 -1
35 -20 54 -28 28 -39 30 -74 16z m68 -41 c14 -27 -23 -64 -50 -50 -28 16 -33
39 -11 61 22 22 45 17 61 -11z"/>
<path d="M2228 2623 c-2 -22 -9 -29 -30 -31 -16 -2 -28 -7 -28 -12 0 -5 12
-10 28 -12 21 -2 28 -9 30 -30 2 -16 7 -28 12 -28 5 0 10 12 12 28 2 21 9 28
31 30 15 2 27 7 27 12 0 5 -12 10 -27 12 -22 2 -29 9 -31 31 -2 15 -7 27 -12
27 -5 0 -10 -12 -12 -27z"/>
<path d="M4951 2599 c1 -19 3 -26 6 -16 3 10 9 14 16 10 7 -4 5 2 -3 13 -8 10
-16 21 -17 23 -2 2 -2 -11 -2 -30z"/>
<path d="M5012 2600 c0 -19 2 -27 5 -17 2 9 2 25 0 35 -3 9 -5 1 -5 -18z"/>
<path d="M5382 2600 c0 -19 2 -27 5 -17 2 9 2 25 0 35 -3 9 -5 1 -5 -18z"/>
<path d="M5718 2613 c-2 -10 -1 -34 3 -53 l6 -35 3 35 c1 19 2 39 1 44 -1 5 4
13 11 17 10 7 9 9 -3 9 -9 0 -18 -8 -21 -17z"/>
<path d="M5054 2588 c-4 -7 -3 -8 5 -4 6 4 20 2 29 -6 15 -12 16 -11 3 5 -16
20 -27 22 -37 5z"/>
<path d="M5144 2593 c8 -8 56 -10 56 -2 0 4 -14 7 -30 7 -17 -1 -28 -3 -26 -5z"/>
<path d="M5237 2593 c-17 -16 -6 -33 21 -32 23 2 24 2 5 6 -13 2 -23 9 -23 15
0 6 9 8 20 5 11 -3 18 -1 14 4 -6 11 -28 12 -37 2z"/>
<path d="M5345 2589 c-11 -16 -1 -19 13 -3 7 8 8 14 3 14 -5 0 -13 -5 -16 -11z"/>
<path d="M5424 2588 c-4 -7 -3 -8 5 -4 6 4 20 2 29 -6 15 -12 16 -11 3 5 -16
20 -27 22 -37 5z"/>
<path d="M5536 2591 c-4 -5 3 -7 14 -4 23 6 26 13 6 13 -8 0 -17 -4 -20 -9z"/>
<path d="M5601 2563 c2 -35 2 -35 6 -8 3 16 10 33 16 37 8 5 6 8 -5 8 -14 0
-18 -8 -17 -37z"/>
<path d="M5654 2588 c-4 -7 -3 -8 5 -4 6 4 20 2 29 -6 15 -12 16 -11 3 5 -16
20 -27 22 -37 5z"/>
<path d="M5765 2590 c-3 -6 1 -7 9 -4 18 7 21 14 7 14 -6 0 -13 -4 -16 -10z"/>
<path d="M5895 2590 c-8 -14 3 -30 21 -30 8 0 14 -5 14 -11 0 -7 -9 -9 -21 -6
-16 4 -19 3 -11 -5 12 -12 42 -4 42 13 0 6 -9 13 -20 16 -11 3 -20 10 -20 15
0 6 9 8 20 5 11 -3 18 -1 14 4 -7 12 -31 11 -39 -1z"/>
<path d="M5970 2596 c0 -2 9 -6 20 -9 11 -3 18 -1 14 4 -5 9 -34 13 -34 5z"/>
<path d="M6045 2590 c-3 -6 1 -7 9 -4 18 7 21 14 7 14 -6 0 -13 -4 -16 -10z"/>
<path d="M773 2530 c0 -36 2 -50 4 -32 2 17 2 47 0 65 -2 17 -4 3 -4 -33z"/>
<path d="M10783 2530 c0 -36 2 -50 4 -32 2 17 2 47 0 65 -2 17 -4 3 -4 -33z"/>
<path d="M5571 2564 c0 -11 3 -14 6 -6 3 7 2 16 -1 19 -3 4 -6 -2 -5 -13z"/>
<path d="M5775 2570 l-30 -8 33 -1 c17 0 32 4 32 9 0 6 -1 9 -2 9 -2 -1 -16
-5 -33 -9z"/>
<path d="M5838 2568 c5 -5 16 -8 23 -6 8 3 3 7 -10 11 -17 4 -21 3 -13 -5z"/>
<path d="M5961 2564 c0 -11 3 -14 6 -6 3 7 2 16 -1 19 -3 4 -6 -2 -5 -13z"/>
<path d="M5340 2551 c0 -10 19 -25 25 -20 1 2 -3 10 -11 17 -8 7 -14 8 -14 3z"/>
<path d="M5070 2540 c-9 -6 -10 -10 -3 -10 6 0 15 5 18 10 8 12 4 12 -15 0z"/>
<path d="M5237 2538 c2 -5 10 -8 18 -8 8 0 16 3 18 8 3 4 -5 7 -18 7 -13 0
-21 -3 -18 -7z"/>
<path d="M5440 2540 c-9 -6 -10 -10 -3 -10 6 0 15 5 18 10 8 12 4 12 -15 0z"/>
<path d="M5537 2539 c7 -7 15 -10 18 -7 3 3 -2 9 -12 12 -14 6 -15 5 -6 -5z"/>
<path d="M5670 2540 c-9 -6 -10 -10 -3 -10 6 0 15 5 18 10 8 12 4 12 -15 0z"/>
<path d="M5985 2540 c-16 -7 -17 -9 -3 -9 9 -1 20 4 23 9 7 11 7 11 -20 0z"/>
<path d="M5778 2533 c7 -3 16 -2 19 1 4 3 -2 6 -13 5 -11 0 -14 -3 -6 -6z"/>
<path d="M5848 2533 c7 -3 16 -2 19 1 4 3 -2 6 -13 5 -11 0 -14 -3 -6 -6z"/>
<path d="M824 2331 c16 -17 45 -36 65 -43 53 -19 9729 -19 9782 0 20 7 49 26
65 43 l29 31 -32 -16 c-29 -15 -435 -16 -4953 -16 -4518 0 -4924 1 -4953 16
l-32 16 29 -31z"/>
<path d="M0 645 l0 -645 5855 0 5855 0 0 645 0 645 -5855 0 -5855 0 0 -645z
m9716 264 c3 -6 1 -15 -6 -19 -8 -5 -8 -10 -2 -14 5 -3 12 1 16 9 3 9 18 14
43 13 20 -1 39 4 41 10 5 16 22 15 22 -1 0 -9 15 -12 53 -10 37 2 48 0 37 -7
-10 -6 -11 -10 -2 -10 6 0 12 -7 12 -15 0 -12 -15 -15 -75 -14 -41 1 -77 5
-81 10 -3 5 -13 9 -22 8 -14 0 -13 -2 3 -9 16 -7 13 -9 -17 -9 -25 -1 -40 5
-47 17 -10 16 -10 16 -11 0 0 -10 -4 -18 -10 -18 -5 0 -10 16 -10 35 0 30 3
35 24 35 14 0 28 -5 32 -11z m284 1 c-13 -9 -13 -11 0 -19 8 -6 17 -6 20 -2 7
12 130 12 130 0 0 -5 8 -9 18 -9 13 0 14 2 3 9 -9 6 10 9 50 10 44 0 59 -2 49
-9 -10 -6 -11 -10 -2 -10 6 0 12 -7 12 -15 0 -12 -17 -15 -93 -15 -59 0 -97 4
-105 12 -8 8 -12 9 -12 1 0 -7 -21 -11 -57 -11 -32 1 -50 3 -40 5 21 6 22 12
0 28 -20 15 -9 35 20 35 18 0 19 -2 7 -10z m237 4 c-3 -3 -12 -4 -19 -1 -8 3
-5 6 6 6 11 1 17 -2 13 -5z m-8909 -21 c-10 -2 -18 -10 -18 -17 0 -9 26 -12
103 -12 l102 1 0 -25 0 -25 -112 -2 -113 -3 0 45 c0 43 1 45 28 44 16 -1 20
-3 10 -6z m222 -23 c0 -33 0 -33 26 -23 16 6 16 7 -2 15 -15 6 -12 7 11 5 25
-2 31 -7 33 -30 3 -26 2 -27 -42 -25 l-46 1 0 44 c0 23 5 43 10 43 6 0 10 -13
10 -30z m160 20 c0 -5 -7 -7 -15 -4 -21 9 -19 -9 5 -29 19 -16 20 -16 20 13 0
29 1 30 48 30 41 0 51 -4 60 -22 l11 -23 0 23 c1 37 31 27 32 -10 l1 -33 14
33 c19 44 39 40 57 -10 l15 -43 1 43 c1 30 5 42 16 42 11 0 15 -12 15 -45 0
-43 -1 -45 -30 -45 -18 0 -33 6 -36 15 -4 8 -10 15 -15 15 -5 0 -9 -7 -9 -15
0 -25 -55 -19 -73 8 l-16 22 0 -22 c-1 -20 -6 -23 -46 -23 -29 0 -45 4 -46 13
0 10 -2 10 -6 0 -6 -16 -63 -17 -63 -2 0 6 9 8 20 4 27 -8 26 9 -2 27 -28 19
-18 48 17 48 14 0 25 -4 25 -10z m385 0 c4 -6 2 -17 -5 -25 -6 -8 -7 -16 -2
-19 6 -3 13 1 16 10 4 12 15 15 36 12 24 -4 30 -1 30 14 0 10 7 18 15 18 8 0
15 -7 15 -15 0 -17 8 -18 95 -16 33 0 62 6 63 11 4 12 32 14 33 3 5 -56 3 -73
-11 -71 -8 2 -16 14 -18 26 -4 28 -26 24 -30 -6 -4 -25 -22 -30 -22 -7 0 8 -9
15 -20 15 -11 0 -20 -5 -20 -11 0 -6 7 -9 15 -5 8 3 15 1 15 -3 0 -14 -124
-11 -132 2 -6 9 -8 9 -8 0 0 -9 -16 -13 -45 -13 -36 0 -45 4 -46 18 -1 16 -2
16 -6 0 -2 -10 -11 -18 -19 -18 -10 0 -14 13 -14 45 0 43 1 45 29 45 17 0 33
-5 36 -10z m459 -12 l7 -23 9 23 c14 34 40 28 40 -9 0 -24 3 -30 16 -25 9 3
19 6 22 7 4 0 -2 4 -13 9 -18 8 -17 9 8 9 15 1 27 -4 27 -11 0 -10 2 -10 8 -1
10 16 204 12 210 -4 2 -8 -5 -13 -17 -13 -12 0 -21 -5 -21 -11 0 -6 7 -9 15
-5 8 3 15 1 15 -5 0 -7 -12 -9 -29 -7 -20 3 -32 -1 -40 -14 -7 -11 -22 -17
-39 -17 -23 2 -24 2 -4 6 46 9 20 29 -30 24 -13 -2 -18 6 -19 26 l-2 28 -4
-28 c-4 -27 -6 -28 -64 -26 -47 2 -59 5 -59 18 -1 14 -2 14 -11 -1 -14 -24
-28 -22 -39 5 l-9 22 0 -22 c-2 -44 -21 -23 -21 22 0 37 3 45 19 45 11 0 21
-9 25 -22z m-89 -38 c0 -20 -6 -26 -28 -28 -18 -2 -29 2 -33 12 -11 28 4 48
33 44 22 -2 28 -8 28 -28z m-1147 -127 c-10 -2 -18 -8 -18 -13 0 -4 43 -6 96
-3 89 5 97 4 110 -16 8 -11 21 -21 27 -21 7 0 6 4 -3 10 -13 9 -13 10 0 11 10
0 8 3 -5 9 -13 5 4 8 49 7 44 0 71 4 74 11 8 25 22 10 22 -24 0 -34 -1 -35
-32 -32 -22 2 -35 10 -40 23 -6 19 -6 19 -13 -2 -6 -19 -14 -23 -50 -23 -37 0
-44 3 -48 23 -4 22 -5 22 -13 -3 l-8 -25 -7 25 -6 25 -11 -25 c-10 -24 -11
-24 -11 -2 -1 26 -21 30 -21 4 0 -15 -8 -19 -35 -20 -23 -1 -38 4 -41 13 -8
21 -32 19 -37 -2 -3 -10 -5 -1 -6 20 -1 32 2 37 22 36 16 -1 18 -2 5 -6z m637
-3 c-14 -6 -3 -9 40 -9 38 -1 55 -5 46 -10 -9 -6 -10 -11 -2 -15 24 -15 8 -26
-39 -26 -45 0 -50 2 -51 23 l-2 22 -4 -22 c-2 -13 -9 -23 -14 -23 -5 0 -9 10
-10 23 l0 22 -9 -22 c-12 -29 -50 -31 -50 -3 0 11 -4 20 -10 20 -5 0 -10 -8
-10 -19 0 -13 -7 -18 -27 -18 -15 0 -29 -6 -31 -12 -8 -24 -22 -9 -22 23 l0
34 77 1 c43 0 79 5 81 11 2 5 16 10 30 9 24 0 25 -1 7 -9z m720 0 c-3 -5 1
-10 9 -10 10 0 17 -9 17 -22 2 -23 2 -23 6 -2 8 40 82 40 84 0 2 -20 2 -20 6
2 6 30 23 28 23 -3 0 -33 -36 -35 -51 -2 l-10 22 5 -22 c3 -15 -1 -23 -10 -23
-8 0 -15 10 -15 23 l-2 22 -4 -22 c-3 -15 -12 -23 -24 -23 -11 0 -24 10 -29
23 l-9 22 0 -22 c-1 -13 -5 -23 -10 -23 -13 0 -19 48 -8 59 14 14 30 14 22 1z
m-947 -32 c-2 -15 -11 -24 -25 -26 -19 -3 -23 1 -23 22 0 21 5 26 26 26 21 0
25 -4 22 -22z m339 -15 c-3 -10 -5 -4 -5 12 0 17 2 24 5 18 2 -7 2 -21 0 -30z
m119 22 c3 -8 12 -11 21 -8 12 5 12 7 1 14 -9 6 -7 9 10 9 17 0 22 -6 22 -25
0 -22 -4 -24 -35 -23 -28 1 -35 5 -36 22 l-2 21 -4 -21 c-3 -16 -12 -21 -38
-22 -36 -1 -50 10 -42 33 8 18 96 18 103 0z m71 -22 c-3 -10 -5 -4 -5 12 0 17
2 24 5 18 2 -7 2 -21 0 -30z m44 28 c-9 -6 -10 -11 -2 -15 19 -12 12 -26 -11
-26 -17 0 -19 3 -9 9 9 6 10 11 2 15 -19 12 -12 26 12 26 16 0 18 -3 8 -9z
m229 -16 c0 -18 -5 -25 -19 -25 -27 0 -35 17 -14 29 16 9 16 10 -4 11 -17 0
-23 -6 -23 -20 0 -18 -6 -20 -52 -19 -32 2 -53 -2 -56 -9 -8 -25 -22 -11 -22
22 l0 34 95 0 c94 1 95 1 95 -23z m85 0 c0 -22 -31 -33 -47 -17 -17 17 -1 44
24 40 15 -2 23 -10 23 -23z m237 0 c-2 -14 -8 -25 -13 -25 -5 0 -9 11 -9 25 0
14 6 25 14 25 9 0 12 -8 8 -25z m65 8 c4 -10 10 -21 15 -24 5 -3 -7 -6 -26 -7
-37 -1 -51 10 -42 33 8 21 45 19 53 -2z m-562 -113 c-3 -5 -11 -10 -16 -10 -6
0 -7 5 -4 10 3 6 11 10 16 10 6 0 7 -4 4 -10z m6695 -20 c0 -23 -4 -30 -20
-30 -11 0 -20 -4 -20 -10 0 -5 9 -10 20 -10 11 0 20 -6 20 -14 0 -25 -12 -46
-26 -46 -10 0 -14 -12 -14 -40 0 -38 -2 -40 -30 -40 -28 0 -30 2 -30 40 0 29
-4 40 -15 40 -10 0 -15 10 -15 30 0 20 5 30 15 30 9 0 15 9 15 22 0 33 29 58
67 58 30 0 33 -3 33 -30z m572 13 c14 -13 18 -31 18 -87 0 -105 -11 -116 -110
-116 -99 0 -110 11 -110 114 0 96 11 106 108 106 56 0 80 -4 94 -17z m403 -13
c0 -18 -6 -26 -23 -28 -24 -4 -38 18 -28 44 3 9 15 14 28 12 17 -2 23 -10 23
-28z m-8705 10 c-13 -9 -13 -11 0 -20 10 -6 11 -10 3 -10 -7 0 -13 -4 -13 -10
0 -5 7 -10 15 -10 8 0 15 9 15 20 0 17 6 20 42 18 24 -1 43 3 46 10 5 16 22
15 22 -1 0 -9 14 -12 49 -10 47 3 48 2 43 -22 -4 -24 -6 -25 -88 -23 -78 1
-84 3 -85 22 -2 20 -2 19 -6 -1 -4 -19 -11 -23 -44 -23 -38 0 -39 1 -39 35 0
32 3 35 28 35 21 0 24 -2 12 -10z m497 -9 c-2 -10 0 -26 5 -35 6 -10 5 -16 -1
-16 -6 0 -15 8 -20 18 -10 16 -10 16 -11 0 0 -10 -4 -18 -10 -18 -5 0 -10 16
-10 35 0 31 3 35 26 35 21 0 25 -4 21 -19z m200 8 c10 -10 52 -13 97 -7 14 2
19 -4 20 -22 1 -25 -1 -26 -56 -28 -46 -2 -58 1 -58 13 0 8 8 15 17 15 9 0 13
3 10 7 -8 7 -58 -16 -69 -32 -4 -5 -8 7 -8 28 0 29 4 37 18 37 10 0 23 -5 29
-11z m286 1 c-13 -5 -23 -16 -23 -25 0 -9 10 -20 23 -25 l22 -10 -24 3 c-52 5
-49 68 3 66 21 0 21 0 -1 -9z m317 3 c-40 -15 -48 -53 -11 -53 24 1 56 27 39
33 -7 2 8 5 35 5 45 1 47 0 46 -26 l-1 -27 -8 25 -8 25 -7 -23 c-7 -21 -12
-23 -69 -20 -56 3 -61 5 -64 27 -4 26 12 41 43 40 14 0 16 -2 5 -6z m351 -15
c0 -13 3 -17 6 -10 7 17 40 15 47 -3 4 -10 -1 -15 -17 -16 -21 0 -21 -1 -2 -9
19 -8 19 -9 -2 -9 -13 -1 -23 5 -24 12 0 10 -2 10 -6 0 -2 -7 -15 -13 -28 -13
-24 0 -35 16 -28 38 3 6 11 12 19 12 8 0 14 5 14 10 0 21 20 9 21 -12z m115
-38 c8 0 14 9 14 20 0 11 5 20 10 20 6 0 10 -11 10 -25 0 -21 -5 -25 -30 -25
-28 0 -30 2 -28 38 1 36 1 36 5 5 3 -20 10 -33 19 -33z m269 43 c-4 -10 -10
-26 -12 -35 -3 -10 -9 -18 -14 -18 -5 0 -4 12 1 26 13 33 13 32 -7 37 -11 3
-6 5 11 6 23 1 27 -2 21 -16z m44 -20 c-2 -31 -3 -33 -6 -10 -2 15 -10 27 -16
27 -10 0 10 19 21 20 1 0 1 -17 1 -37z m153 26 c-29 -11 -26 -43 6 -47 12 -2
22 1 22 7 0 6 8 11 18 12 14 0 14 2 -3 9 -19 8 -19 9 3 9 17 1 22 -5 22 -25 0
-24 -3 -25 -46 -22 -54 3 -77 26 -55 52 8 9 23 16 35 15 20 0 20 -1 -2 -10z
m475 2 c-17 -6 -17 -8 2 -25 21 -19 21 -19 21 7 0 20 5 27 20 27 11 0 23 -7
27 -16 8 -22 -27 -49 -67 -51 -19 0 -27 1 -17 4 21 6 22 19 2 27 -24 9 -18 36
8 35 19 0 20 -1 4 -8z m-1203 -34 c1 -16 -4 -27 -11 -27 -7 0 -14 10 -14 23
l-2 22 -4 -23 c-6 -31 -47 -27 -51 6 -2 12 1 22 7 22 6 0 12 -10 12 -22 l2
-23 4 22 c4 20 25 33 47 29 5 -1 10 -14 10 -29z m-1084 12 c0 -5 -8 -10 -17
-10 -17 -1 -17 -2 0 -6 31 -8 18 -21 -24 -21 -33 -1 -42 3 -46 19 -6 22 -23
26 -23 4 0 -8 5 -15 10 -15 6 0 10 -7 10 -15 0 -8 -7 -15 -17 -15 -9 0 -13 3
-10 7 7 7 -22 32 -38 33 -5 0 -3 -5 5 -10 12 -8 11 -10 -7 -10 -25 0 -37 14
-30 34 4 10 29 14 96 14 50 -1 91 -5 91 -9z m111 -11 l2 -23 4 23 c5 24 23 31
23 7 0 -9 6 -12 16 -8 13 5 13 7 2 14 -9 6 -7 9 10 9 17 0 22 -6 22 -25 0 -23
-3 -24 -47 -22 -41 2 -48 5 -51 25 -2 12 1 22 7 22 6 0 12 -10 12 -22z m382
15 c-7 -3 -13 -13 -13 -22 0 -13 -8 -18 -32 -19 -34 -1 -50 12 -41 34 3 7 23
12 51 12 26 0 41 -3 35 -5z m302 -18 c0 -13 -8 -21 -22 -23 -21 -3 -28 6 -24
31 0 4 -3 7 -9 7 -5 0 -10 -9 -10 -20 0 -11 -4 -20 -10 -20 -5 0 -10 5 -10 10
0 6 -10 10 -22 9 -22 0 -22 -1 -3 -9 14 -6 3 -9 -37 -8 -53 1 -58 3 -58 23 0
22 3 23 103 21 95 -1 102 -2 102 -21z m350 0 c0 -22 -31 -33 -47 -17 -17 17
-1 44 24 40 15 -2 23 -10 23 -23z m319 10 c3 -9 12 -12 21 -8 13 5 14 7 3 14
-10 7 -8 9 5 9 11 0 21 -9 24 -20 3 -11 10 -20 15 -20 5 0 7 -4 4 -8 -2 -4
-23 -6 -45 -4 -31 3 -41 9 -44 25 -4 21 -5 21 -13 -3 l-8 -25 -7 25 -6 25 -11
-25 -11 -25 0 28 c-1 24 2 27 33 27 21 0 36 -6 40 -15z m586 -10 c0 -18 -6
-22 -26 -22 -15 0 -30 -6 -34 -13 -10 -16 -35 5 -43 36 -4 16 -5 16 -6 -3 0
-13 -5 -23 -11 -23 -5 0 -11 10 -11 23 l-2 22 -4 -22 c-6 -31 -23 -29 -23 2 0
24 1 25 80 23 75 -1 80 -2 80 -23z m56 11 c3 -8 12 -12 21 -9 10 4 11 8 3 13
-6 4 8 7 32 7 23 0 37 -2 30 -4 -8 -3 -5 -11 10 -23 13 -10 21 -20 18 -22 -3
-2 -33 -2 -67 0 -56 3 -63 6 -64 25 -2 22 -2 22 -6 0 -6 -31 -23 -29 -23 2 0
18 5 25 20 25 11 0 23 -6 26 -14z m-369 -12 c-3 -3 -12 -4 -19 -1 -8 3 -5 6 6
6 11 1 17 -2 13 -5z m6690 -26 c18 -17 23 -32 23 -75 0 -52 0 -53 -30 -53 -29
0 -30 2 -30 45 0 25 -4 45 -10 45 -5 0 -10 -20 -10 -45 0 -43 -1 -45 -30 -45
-29 0 -30 1 -30 52 0 86 63 127 117 76z m-137 -58 l0 -70 -30 0 -30 0 0 70 0
70 30 0 30 0 0 -70z m-7600 -60 c0 -27 -4 -50 -10 -50 -5 0 -10 23 -10 50 0
28 5 50 10 50 6 0 10 -22 10 -50z m-1102 33 c-18 -5 -31 -30 -22 -44 9 -16 31
-10 37 10 4 17 14 20 62 20 37 0 61 4 66 13 7 10 11 10 17 1 11 -18 65 -20 79
-3 10 12 14 12 21 3 4 -7 27 -14 50 -15 23 -1 42 -3 42 -5 0 -1 -9 -12 -19
-22 -16 -16 -34 -20 -105 -20 -82 0 -86 1 -87 22 l-2 22 -4 -22 c-2 -13 -9
-23 -14 -23 -5 0 -10 10 -10 23 -2 21 -2 21 -6 1 -4 -20 -10 -22 -76 -20 -60
1 -72 4 -75 19 -5 24 16 47 42 46 15 -1 17 -2 4 -6z m407 -38 c0 -47 -9 -59
-20 -26 -6 21 3 71 14 71 3 0 6 -20 6 -45z m45 10 c0 -19 -4 -35 -9 -35 -10 0
-21 57 -13 65 14 13 22 2 22 -30z m65 24 c14 -21 -4 -59 -28 -58 -21 0 -21 1
-2 9 17 7 17 9 3 9 -26 1 -25 51 1 51 11 0 23 -5 26 -11z m30 -10 c7 -23 -1
-69 -13 -69 -4 0 -7 20 -7 45 0 48 9 59 20 24z m241 9 c3 -5 -2 -18 -11 -28
-15 -17 -15 -19 2 -23 12 -3 9 -5 -9 -6 -31 -1 -36 10 -13 29 20 17 19 26 -5
26 -13 0 -23 -11 -31 -31 -6 -16 -13 -25 -16 -18 -2 7 1 21 7 32 9 18 8 21
-11 21 -14 0 -24 -10 -32 -30 -6 -16 -15 -30 -19 -30 -4 0 -3 12 3 26 11 30 7
39 -16 31 -8 -4 -14 -16 -12 -29 1 -18 -3 -23 -23 -25 -14 -1 -18 0 -7 3 20 6
23 24 5 25 -10 0 -10 2 0 6 18 7 15 21 -5 26 -10 2 28 4 84 5 57 0 106 -4 109
-10z m83 -25 c-2 -31 -3 -33 -6 -10 -2 15 -10 27 -16 27 -10 0 10 19 21 20 1
0 1 -17 1 -37z m63 15 c-4 -24 10 -23 26 2 17 28 32 25 33 -7 l2 -28 4 28 c4
22 9 28 26 25 17 -2 22 -10 22 -33 l0 -30 -76 -1 -77 -1 0 34 c0 29 3 34 22
31 14 -2 20 -9 18 -20z m613 12 c3 -5 18 -10 33 -11 15 0 21 -3 14 -6 -6 -2
-9 -10 -5 -16 4 -6 0 -8 -10 -4 -9 3 -19 2 -22 -3 -4 -6 -18 -10 -33 -11 l-27
-1 25 -8 25 -8 -26 -1 c-14 -1 -29 2 -33 7 -4 4 -22 7 -39 7 -25 0 -32 4 -32
20 0 15 7 20 27 20 16 1 33 6 40 13 15 15 54 16 63 2z m542 -13 c21 1 32 -1
26 -4 -7 -2 -13 -13 -13 -22 0 -13 -9 -18 -35 -19 -34 -1 -35 0 -35 36 0 26 3
33 9 23 6 -9 25 -14 48 -14z m-775 -16 c-3 -20 -1 -21 17 -9 14 9 17 14 8 20
-7 5 -2 8 16 9 15 1 32 2 39 3 6 1 12 -11 12 -26 1 -17 -4 -28 -11 -28 -7 0
-14 10 -14 23 l-2 22 -4 -23 c-4 -20 -10 -22 -53 -21 -41 2 -50 6 -53 23 -3
20 -4 20 -15 -4 l-11 -25 0 27 c-1 22 4 27 27 31 40 6 47 2 44 -22z m-87 -6
c0 -16 -8 -21 -39 -23 -43 -4 -62 8 -52 33 4 12 16 15 48 13 35 -2 43 -7 43
-23z m426 13 c0 -10 2 -10 6 0 7 17 42 15 49 -2 3 -8 12 -12 21 -9 12 5 12 7
1 14 -9 6 -7 9 10 9 17 0 22 -6 22 -25 0 -22 -4 -24 -35 -23 -28 1 -35 5 -36
22 -2 20 -2 19 -6 -1 -4 -23 -23 -33 -23 -13 0 6 -10 10 -22 9 -22 0 -22 -1
-3 -9 14 -5 6 -8 -30 -8 -39 0 -45 2 -27 9 12 5 25 15 28 24 7 18 44 20 45 3z
m126 -25 c-3 -10 -5 -4 -5 12 0 17 2 24 5 18 2 -7 2 -21 0 -30z m134 25 c0
-10 2 -10 6 0 5 14 73 17 73 3 0 -5 7 -17 16 -25 14 -15 14 -16 -5 -16 -12 0
-21 8 -24 23 -4 22 -5 22 -13 -3 l-8 -25 -7 25 -6 25 -11 -25 c-6 -14 -11 -19
-11 -11 -1 10 -4 11 -15 2 -7 -6 -37 -11 -65 -10 -29 1 -48 5 -43 8 5 3 11 14
15 24 5 13 18 17 52 17 29 0 45 -4 46 -12z m-1084 -14 c-3 -3 -12 -4 -19 -1
-8 3 -5 6 6 6 11 1 17 -2 13 -5z m-477 -14 c0 -5 -4 -10 -10 -10 -5 0 -10 5
-10 10 0 6 5 10 10 10 6 0 10 -4 10 -10z m2845 -265 c0 -26 -3 -30 -29 -30
-36 0 -56 26 -36 50 8 9 24 15 39 13 22 -2 26 -8 26 -33z m85 15 c0 -10 -8
-24 -17 -29 -16 -9 -16 -10 4 -11 16 0 22 7 25 28 4 39 42 38 46 -1 3 -28 4
-28 23 -11 23 20 25 38 4 30 -8 -3 -15 -1 -15 4 0 6 9 10 20 10 25 0 27 -35 3
-49 -15 -8 -11 -10 20 -11 20 0 37 5 37 10 0 6 -7 10 -15 10 -8 0 -15 9 -15
20 0 14 7 20 23 20 18 0 19 -2 7 -10 -13 -8 -12 -11 4 -23 36 -27 9 -36 -100
-35 l-105 0 20 22 c25 26 27 41 6 32 -8 -3 -15 -1 -15 4 0 6 9 10 20 10 13 0
20 -7 20 -20z m238 13 c-22 -6 -23 -12 -1 -28 20 -15 9 -35 -20 -34 -17 1 -18
2 -4 6 21 6 22 12 0 28 -20 15 -9 35 20 34 17 -1 18 -2 5 -6z m50 0 c-10 -2
-18 -9 -18 -14 0 -5 8 -10 18 -10 16 -1 16 -2 0 -6 -10 -2 -18 -8 -18 -13 0
-5 8 -11 18 -13 13 -4 11 -5 -5 -6 -20 -1 -23 4 -23 34 0 30 3 35 23 34 16 -1
18 -2 5 -6z m48 -10 c13 -17 13 -17 14 0 0 32 20 18 21 -15 l1 -33 14 33 c8
17 18 32 23 32 11 0 33 -61 25 -69 -4 -3 -9 0 -11 7 -5 14 -33 16 -33 2 0 -19
-39 -10 -52 13 l-12 22 -7 -25 c-6 -22 -7 -20 -8 13 -1 41 5 46 25 20z m121
-35 c-2 -13 -4 -5 -4 17 -1 22 1 32 4 23 2 -10 2 -28 0 -40z m85 22 c-2 -23
-2 -24 11 -6 9 13 21 17 36 13 14 -3 21 -1 21 9 0 17 17 19 22 2 4 -11 73 -14
132 -6 14 2 19 -4 20 -24 1 -17 -3 -28 -11 -28 -7 0 -13 9 -13 20 0 11 -4 20
-10 20 -5 0 -10 -8 -10 -19 0 -17 -9 -19 -99 -19 -77 0 -103 3 -113 15 -11 13
-13 13 -19 -4 -5 -12 -8 -6 -8 20 -1 34 1 38 22 35 17 -2 21 -9 19 -28z m365
10 c3 -11 9 -20 13 -20 4 0 10 9 13 20 8 33 27 23 27 -15 0 -19 -4 -35 -10
-35 -5 0 -10 6 -10 13 0 8 -4 7 -10 -3 -9 -13 -11 -13 -20 0 -6 10 -10 11 -10
3 0 -7 -4 -13 -10 -13 -5 0 -10 16 -10 35 0 38 19 48 27 15z m376 13 c-7 -2
-13 -18 -13 -34 0 -16 -4 -29 -10 -29 -5 0 -10 13 -10 29 0 16 -6 32 -12 34
-7 3 3 5 22 5 19 0 29 -2 23 -5z m107 -15 c0 -14 3 -18 8 -12 4 7 27 12 52 12
27 1 39 -2 31 -7 -9 -6 -10 -11 -2 -15 23 -15 9 -24 -34 -24 -28 0 -45 4 -45
11 0 9 -2 9 -8 1 -4 -7 -31 -12 -59 -12 -49 0 -53 2 -53 24 0 22 4 24 42 22
24 -1 43 3 46 10 7 21 22 13 22 -10z m330 12 c-10 -6 -11 -10 -2 -10 6 0 12
-12 12 -26 0 -23 -3 -25 -37 -22 -44 3 -60 35 -24 45 12 3 21 9 21 14 0 5 10
9 23 9 18 0 19 -2 7 -10z m660 -3 c0 -9 15 -12 53 -10 32 2 47 0 38 -6 -10 -7
-8 -12 9 -24 20 -14 13 -15 -94 -15 -113 0 -135 6 -98 27 15 9 16 10 0 11 -9
0 -20 -9 -23 -20 -8 -26 -25 -26 -32 0 -3 11 -9 20 -14 20 -5 0 -9 -9 -9 -20
0 -11 -4 -20 -10 -20 -5 0 -10 5 -10 10 0 6 -10 10 -22 9 -22 0 -22 -1 -3 -9
13 -5 -5 -7 -50 -6 -63 1 -70 3 -70 21 0 17 7 20 45 22 26 1 39 -1 31 -6 -10
-7 -9 -10 3 -14 10 -4 16 -1 16 7 0 10 14 14 50 14 29 1 50 -4 50 -10 0 -7 4
-7 13 0 7 6 33 10 57 9 27 -1 45 3 48 11 5 16 22 15 22 -1z m-506 -30 c1 -16
-4 -27 -11 -27 -7 0 -14 10 -14 23 l-2 22 -4 -22 c-6 -33 -60 -33 -72 0 l-9
22 -10 -25 -11 -25 0 27 c-1 26 1 28 38 25 21 -2 47 0 57 4 28 11 37 6 38 -24z
m-1029 -2 c0 -22 -31 -33 -47 -17 -17 17 -1 44 24 40 15 -2 23 -10 23 -23z
m165 0 c0 -18 -5 -25 -20 -25 -25 0 -27 30 -2 31 14 0 14 2 -3 9 -19 8 -19 9
3 9 17 1 22 -5 22 -24z m58 13 c9 -9 12 -9 12 -1 0 8 19 12 50 11 36 0 50 -4
50 -14 0 -8 -8 -15 -17 -15 -10 -1 -4 -5 12 -10 29 -8 29 -8 -7 -6 -23 2 -39
-2 -42 -10 -3 -7 -16 -13 -28 -12 -22 0 -22 1 -3 9 17 7 17 9 3 9 -10 1 -18 7
-19 14 0 10 -2 10 -6 0 -8 -21 -23 -15 -24 10 l-2 22 -4 -22 c-6 -31 -23 -29
-23 2 0 27 26 35 48 13z m543 2 c-9 -5 -10 -10 -2 -14 23 -15 9 -24 -34 -24
-46 0 -61 9 -52 33 4 9 22 13 53 13 28 0 42 -3 35 -8z m349 0 c-8 -5 -7 -9 5
-14 20 -7 10 -26 -13 -26 -15 0 -15 2 -2 10 9 6 10 10 3 10 -6 0 -15 -4 -18
-10 -8 -13 -42 -13 -50 0 -14 23 4 39 46 38 23 0 36 -4 29 -8z m72 -15 c-2
-14 -8 -25 -13 -25 -5 0 -9 11 -9 25 0 14 6 25 14 25 9 0 12 -8 8 -25z"/>
<path d="M9801 874 c0 -11 3 -14 6 -6 3 7 2 16 -1 19 -3 4 -6 -2 -5 -13z"/>
<path d="M9873 863 c9 -2 23 -2 30 0 6 3 -1 5 -18 5 -16 0 -22 -2 -12 -5z"/>
<path d="M10041 874 c0 -11 3 -14 6 -6 3 7 2 16 -1 19 -3 4 -6 -2 -5 -13z"/>
<path d="M10100 875 c0 -8 7 -15 15 -15 8 0 15 7 15 15 0 8 -7 15 -15 15 -8 0
-15 -7 -15 -15z"/>
<path d="M1375 850 c4 -6 11 -8 16 -5 14 9 11 15 -7 15 -8 0 -12 -5 -9 -10z"/>
<path d="M1425 850 c-7 -12 2 -30 16 -30 5 0 9 9 9 20 0 21 -15 27 -25 10z"/>
<path d="M1480 840 c0 -19 3 -21 12 -12 9 9 9 15 0 24 -9 9 -12 7 -12 -12z"/>
<path d="M1310 835 c0 -10 10 -15 33 -15 30 1 31 1 13 15 -25 19 -46 19 -46 0z"/>
<path d="M1750 875 c0 -8 7 -15 15 -15 8 0 15 7 15 15 0 8 -7 15 -15 15 -8 0
-15 -7 -15 -15z"/>
<path d="M1750 835 c0 -8 7 -15 15 -15 8 0 15 7 15 15 0 8 -7 15 -15 15 -8 0
-15 -7 -15 -15z"/>
<path d="M2061 874 c0 -11 3 -14 6 -6 3 7 2 16 -1 19 -3 4 -6 -2 -5 -13z"/>
<path d="M2124 849 c-3 -6 -1 -16 5 -22 8 -8 11 -5 11 11 0 24 -5 28 -16 11z"/>
<path d="M2200 840 c0 -19 3 -21 12 -12 9 9 9 15 0 24 -9 9 -12 7 -12 -12z"/>
<path d="M2782 840 c0 -14 2 -19 5 -12 2 6 2 18 0 25 -3 6 -5 1 -5 -13z"/>
<path d="M2432 840 c0 -14 2 -19 5 -12 2 6 2 18 0 25 -3 6 -5 1 -5 -13z"/>
<path d="M1350 675 c0 -8 5 -15 10 -15 6 0 10 7 10 15 0 8 -4 15 -10 15 -5 0
-10 -7 -10 -15z"/>
<path d="M1635 681 c-3 -5 -1 -12 5 -16 5 -3 10 1 10 9 0 18 -6 21 -15 7z"/>
<path d="M1786 681 c-4 -7 -5 -15 -2 -18 9 -9 19 4 14 18 -4 11 -6 11 -12 0z"/>
<path d="M1876 681 c-4 -5 -2 -12 3 -15 5 -4 12 -2 15 3 4 5 2 12 -3 15 -5 4
-12 2 -15 -3z"/>
<path d="M2000 675 c7 -8 20 -15 28 -15 13 0 12 3 -4 15 -25 19 -40 19 -24 0z"/>
<path d="M1970 670 c0 -5 5 -10 11 -10 5 0 7 5 4 10 -3 6 -8 10 -11 10 -2 0
-4 -4 -4 -10z"/>
<path d="M1696 681 c-4 -5 -2 -12 3 -15 5 -4 12 -2 15 3 4 5 2 12 -3 15 -5 4
-12 2 -15 -3z"/>
<path d="M2100 675 c0 -8 5 -15 10 -15 6 0 10 7 10 15 0 8 -4 15 -10 15 -5 0
-10 -7 -10 -15z"/>
<path d="M2360 675 c0 -8 5 -15 10 -15 6 0 10 7 10 15 0 8 -4 15 -10 15 -5 0
-10 -7 -10 -15z"/>
<path d="M2402 678 c2 -6 11 -13 19 -16 12 -3 12 -2 0 6 -11 8 -11 10 0 15 10
4 8 6 -4 6 -10 1 -17 -4 -15 -11z"/>
<path d="M2580 675 c0 -8 5 -15 10 -15 6 0 10 7 10 15 0 8 -4 15 -10 15 -5 0
-10 -7 -10 -15z"/>
<path d="M2880 675 c0 -8 5 -15 10 -15 6 0 10 7 10 15 0 8 -4 15 -10 15 -5 0
-10 -7 -10 -15z"/>
<path d="M8982 548 c-7 -7 -12 -25 -12 -40 0 -18 -5 -28 -15 -28 -8 0 -15 -4
-15 -10 0 -5 7 -10 15 -10 11 0 15 -11 15 -40 0 -22 5 -40 10 -40 6 0 10 18
10 40 0 29 4 40 15 40 8 0 15 5 15 10 0 6 -7 10 -15 10 -24 0 -19 51 5 57 11
3 20 9 20 14 0 13 -34 11 -48 -3z"/>
<path d="M9452 548 c-7 -7 -12 -40 -12 -78 0 -38 5 -71 12 -78 7 -7 40 -12 78
-12 38 0 71 5 78 12 7 7 12 40 12 78 0 38 -5 71 -12 78 -7 7 -40 12 -78 12
-38 0 -71 -5 -78 -12z m142 -29 c-3 -5 -10 -7 -15 -3 -5 3 -7 10 -3 15 3 5 10
7 15 3 5 -3 7 -10 3 -15z m-26 -11 c28 -28 2 -88 -38 -88 -44 0 -68 68 -32 89
23 14 55 14 70 -1z"/>
<path d="M9510 484 c-11 -12 -10 -18 3 -32 16 -15 18 -15 34 0 13 14 14 20 3
32 -7 9 -16 16 -20 16 -4 0 -13 -7 -20 -16z"/>
<path d="M9990 550 c0 -5 5 -10 10 -10 6 0 10 5 10 10 0 6 -4 10 -10 10 -5 0
-10 -4 -10 -10z"/>
<path d="M1421 524 c0 -11 3 -14 6 -6 3 7 2 16 -1 19 -3 4 -6 -2 -5 -13z"/>
<path d="M1488 513 c7 -3 16 -2 19 1 4 3 -2 6 -13 5 -11 0 -14 -3 -6 -6z"/>
<path d="M1790 550 c0 -5 5 -10 10 -10 6 0 10 5 10 10 0 6 -4 10 -10 10 -5 0
-10 -4 -10 -10z"/>
<path d="M1980 545 c0 -8 5 -15 10 -15 6 0 10 7 10 15 0 8 -4 15 -10 15 -5 0
-10 -7 -10 -15z"/>
<path d="M2080 536 c0 -2 7 -6 15 -10 8 -3 15 -1 15 4 0 6 -7 10 -15 10 -8 0
-15 -2 -15 -4z"/>
<path d="M2060 520 c0 -6 7 -10 15 -10 8 0 15 2 15 4 0 2 -7 6 -15 10 -8 3
-15 1 -15 -4z"/>
<path d="M2930 525 c0 -8 5 -15 10 -15 6 0 10 7 10 15 0 8 -4 15 -10 15 -5 0
-10 -7 -10 -15z"/>
<path d="M4071 544 c0 -11 3 -14 6 -6 3 7 2 16 -1 19 -3 4 -6 -2 -5 -13z"/>
<path d="M1675 531 c-3 -5 -1 -12 5 -16 5 -3 10 1 10 9 0 18 -6 21 -15 7z"/>
<path d="M2160 525 c0 -9 5 -15 11 -13 6 2 11 8 11 13 0 5 -5 11 -11 13 -6 2
-11 -4 -11 -13z"/>
<path d="M2370 525 c0 -8 7 -15 15 -15 8 0 15 7 15 15 0 8 -7 15 -15 15 -8 0
-15 -7 -15 -15z"/>
<path d="M2500 525 c0 -9 5 -15 11 -13 6 2 11 8 11 13 0 5 -5 11 -11 13 -6 2
-11 -4 -11 -13z"/>
<path d="M2850 525 c0 -8 5 -15 10 -15 6 0 10 7 10 15 0 8 -4 15 -10 15 -5 0
-10 -7 -10 -15z"/>
<path d="M3736 531 c-4 -7 -5 -15 -2 -18 9 -9 19 4 14 18 -4 11 -6 11 -12 0z"/>
<path d="M3900 520 c0 -6 7 -10 15 -10 8 0 15 2 15 4 0 2 -7 6 -15 10 -8 3
-15 1 -15 -4z"/>
<path d="M10087 482 c-18 -20 -24 -92 -8 -92 6 0 11 19 13 43 3 37 6 42 28 42
22 0 25 -5 28 -42 4 -53 22 -57 22 -5 0 62 -48 93 -83 54z"/>
<path d="M9990 440 c0 -27 5 -50 10 -50 6 0 10 23 10 50 0 28 -4 50 -10 50 -5
0 -10 -22 -10 -50z"/>
<path d="M1371 374 c0 -11 3 -14 6 -6 3 7 2 16 -1 19 -3 4 -6 -2 -5 -13z"/>
<path d="M1490 380 c0 -13 11 -13 30 0 12 8 11 10 -7 10 -13 0 -23 -4 -23 -10z"/>
<path d="M1621 374 c0 -11 3 -14 6 -6 3 7 2 16 -1 19 -3 4 -6 -2 -5 -13z"/>
<path d="M1810 395 c0 -8 5 -15 10 -15 6 0 10 7 10 15 0 8 -4 15 -10 15 -5 0
-10 -7 -10 -15z"/>
<path d="M2343 394 c-3 -8 -1 -20 6 -27 8 -8 11 -4 11 16 0 30 -7 35 -17 11z"/>
<path d="M2235 370 c-3 -5 -1 -10 4 -10 6 0 11 5 11 10 0 6 -2 10 -4 10 -3 0
-8 -4 -11 -10z"/>
<path d="M2826 401 c-3 -5 2 -7 13 -4 13 3 21 -1 25 -14 4 -16 5 -15 3 2 -2
21 -31 33 -41 16z"/>
<path d="M2760 375 c0 -8 5 -15 10 -15 6 0 10 7 10 15 0 8 -4 15 -10 15 -5 0
-10 -7 -10 -15z"/>
<path d="M2835 380 c-3 -5 -1 -10 4 -10 6 0 11 5 11 10 0 6 -2 10 -4 10 -3 0
-8 -4 -11 -10z"/>
<path d="M3376 381 c-4 -5 -2 -12 3 -15 5 -4 12 -2 15 3 4 5 2 12 -3 15 -5 4
-12 2 -15 -3z"/>
<path d="M2480 375 c0 -8 6 -15 13 -15 8 0 14 7 14 15 0 8 -6 15 -14 15 -7 0
-13 -7 -13 -15z"/>
<path d="M2520 375 c0 -9 5 -15 11 -13 6 2 11 8 11 13 0 5 -5 11 -11 13 -6 2
-11 -4 -11 -13z"/>
<path d="M3160 375 c0 -8 7 -15 15 -15 8 0 15 7 15 15 0 8 -7 15 -15 15 -8 0
-15 -7 -15 -15z"/>
<path d="M3206 381 c-4 -5 -2 -12 3 -15 5 -4 12 -2 15 3 4 5 2 12 -3 15 -5 4
-12 2 -15 -3z"/>
<path d="M4495 111 l20 -10 -20 -1 -20 -1 20 -8 c18 -8 18 -9 2 -14 -17 -5
-17 -5 0 -3 25 2 23 40 -2 43 l-20 3 20 -9z"/>
<path d="M4640 95 c0 -15 4 -24 10 -20 6 3 10 12 10 20 0 8 -4 17 -10 20 -6 4
-10 -5 -10 -20z"/>
<path d="M5120 110 c0 -5 5 -10 10 -10 6 0 10 5 10 10 0 6 -4 10 -10 10 -5 0
-10 -4 -10 -10z"/>
<path d="M5180 85 c0 -8 5 -15 10 -15 6 0 10 7 10 15 0 8 -4 15 -10 15 -5 0
-10 -7 -10 -15z"/>
<path d="M5246 91 c-4 -7 -5 -15 -2 -18 9 -9 19 4 14 18 -4 11 -6 11 -12 0z"/>
<path d="M5308 73 c7 -3 16 -2 19 1 4 3 -2 6 -13 5 -11 0 -14 -3 -6 -6z"/>
<path d="M5906 91 c-4 -5 -2 -12 3 -15 5 -4 12 -2 15 3 4 5 2 12 -3 15 -5 4
-12 2 -15 -3z"/>
<path d="M5960 85 c0 -8 5 -15 10 -15 6 0 10 7 10 15 0 8 -4 15 -10 15 -5 0
-10 -7 -10 -15z"/>
<path d="M6020 85 c0 -9 5 -15 11 -13 6 2 11 8 11 13 0 5 -5 11 -11 13 -6 2
-11 -4 -11 -13z"/>
<path d="M6060 80 c0 -6 7 -10 15 -10 8 0 15 2 15 4 0 2 -7 6 -15 10 -8 3 -15
1 -15 -4z"/>
<path d="M6280 85 c0 -8 5 -15 10 -15 6 0 10 7 10 15 0 8 -4 15 -10 15 -5 0
-10 -7 -10 -15z"/>
<path d="M6950 85 c0 -8 5 -15 10 -15 6 0 10 7 10 15 0 8 -4 15 -10 15 -5 0
-10 -7 -10 -15z"/>
<path d="M7010 85 c0 -8 5 -15 10 -15 6 0 10 7 10 15 0 8 -4 15 -10 15 -5 0
-10 -7 -10 -15z"/>
<path d="M6685 79 c-16 -6 -14 -8 13 -8 33 -1 41 4 20 12 -7 2 -22 1 -33 -4z"/>
<path d="M7050 80 c0 -5 5 -10 11 -10 5 0 7 5 4 10 -3 6 -8 10 -11 10 -2 0 -4
-4 -4 -10z"/>
<path d="M6408 73 c7 -3 16 -2 19 1 4 3 -2 6 -13 5 -11 0 -14 -3 -6 -6z"/>
<path d="M5420 85 c0 -8 5 -15 10 -15 6 0 10 7 10 15 0 8 -4 15 -10 15 -5 0
-10 -7 -10 -15z"/>
<path d="M5700 85 c0 -8 5 -15 10 -15 6 0 10 7 10 15 0 8 -4 15 -10 15 -5 0
-10 -7 -10 -15z"/>
<path d="M6150 85 c0 -8 5 -15 10 -15 6 0 10 7 10 15 0 8 -4 15 -10 15 -5 0
-10 -7 -10 -15z"/>
<path d="M6190 80 c0 -6 7 -10 15 -10 8 0 15 2 15 4 0 2 -7 6 -15 10 -8 3 -15
1 -15 -4z"/>
<path d="M6510 85 c0 -8 5 -15 10 -15 6 0 10 7 10 15 0 8 -4 15 -10 15 -5 0
-10 -7 -10 -15z"/>
</g>
</svg>
