<?xml version="1.0" encoding="UTF-8"?>
<svg version="1.1" xmlns="http://www.w3.org/2000/svg" width="299" height="168">
<path d="M0 0 C98.67 0 197.34 0 299 0 C299 55.44 299 110.88 299 168 C200.33 168 101.66 168 0 168 C0 112.56 0 57.12 0 0 Z " fill="#FEFEFE" transform="translate(0,0)"/>
<path d="M0 0 C44.01539148 -0.20151517 44.01539148 -0.20151517 62.41601562 -0.24414062 C75.13690227 -0.27384488 87.85762372 -0.30882291 100.57836914 -0.37719727 C109.84155878 -0.42696352 119.1046148 -0.45927466 128.36793441 -0.47044247 C133.27490028 -0.47697274 138.18148383 -0.49236713 143.08832741 -0.52865028 C147.70370213 -0.56250279 152.31853583 -0.57307483 156.9340229 -0.56553841 C158.6308155 -0.56691778 160.32762556 -0.57691434 162.02431107 -0.59602737 C164.33607759 -0.62079919 166.64578459 -0.6149656 168.95759583 -0.60127258 C170.25271497 -0.60588155 171.54783411 -0.61049051 172.88219929 -0.61523914 C176 0 176 0 177.8388319 2.43601704 C178.22201737 3.28213141 178.60520285 4.12824579 179 5 C184.5940508 10.60753044 191.73599592 13.19345297 199 16 C198.34 21.94 197.68 27.88 197 34 C195.453125 34.53625 193.90625 35.0725 192.3125 35.625 C186.66465309 37.86493928 183.74648782 40.50702437 181 46 C180.85056144 48.26744274 180.77855098 50.5403175 180.75 52.8125 C180.72421875 54.03582031 180.6984375 55.25914063 180.671875 56.51953125 C181.02099821 60.22273105 181.9361509 61.97483172 184 65 C184 65.66 184 66.32 184 67 C184.61875 67.309375 185.2375 67.61875 185.875 67.9375 C187.25 68.625 188.625 69.3125 190 70 C192.24655587 70.14977039 194.49863768 70.22150174 196.75 70.25 C197.96171875 70.27578125 199.1734375 70.3015625 200.421875 70.328125 C205.02638831 69.90587705 208.32413462 68.65198131 211.64453125 65.37890625 C214.43733553 61.03558187 215.14120987 58.18829194 215.0625 53 C215.2068854 48.77539011 215.4927439 47.48071804 218.61328125 44.5234375 C221.67499341 42.50674087 224.76002078 40.71218414 228 39 C228.99 38.34 229.98 37.68 231 37 C231 59.44 231 81.88 231 105 C154.77 105 78.54 105 0 105 C0 70.35 0 35.7 0 0 Z " fill="#1D3E2F" transform="translate(4,59)"/>
<path d="M0 0 C3.37610861 2.66364445 5.23845255 5.77904644 6 10 C6.07911543 11.65989282 6.10778885 13.3226287 6.09765625 14.984375 C6.09282227 16.38623047 6.09282227 16.38623047 6.08789062 17.81640625 C6.07532227 19.26853516 6.07532227 19.26853516 6.0625 20.75 C6.05798828 21.73355469 6.05347656 22.71710937 6.04882812 23.73046875 C6.03706483 26.15370791 6.02062684 28.57682273 6 31 C6.75023437 31.25652344 7.50046875 31.51304688 8.2734375 31.77734375 C16.21195424 34.74678893 22.52086612 38.42050176 28 45 C29.68628145 49.4456511 29.34132191 51.08980824 27.6875 55.5 C22.55588036 63.32968769 13.80803115 67.03224836 5 69 C5.15855469 69.65355469 5.31710937 70.30710937 5.48046875 70.98046875 C6.7974795 78.63497485 7.64212228 88.72757736 4.25 95.9375 C2.05613044 98.92360023 1.27448237 99.68775426 -2 101 C-11.82889243 102.18624564 -19.11382639 97.01148404 -26.6015625 91.13671875 C-27.06304687 90.76160156 -27.52453125 90.38648437 -28 90 C-31.30837997 91.53108747 -34.16236565 93.44443753 -37.125 95.5625 C-41.80555556 98.90277778 -41.80555556 98.90277778 -44 100 C-44.18039486 101.84830799 -44.26835138 103.70593446 -44.3125 105.5625 C-44.78391901 112.63378508 -46.89971848 117.17327273 -52.125 121.9375 C-57.84588243 125.17933338 -64.64186769 124.51216256 -71 124 C-75.32462743 122.13593645 -78.11251646 119.57039879 -80.3046875 115.32421875 C-82.25258823 108.81297756 -82.17184571 101.51729819 -79.3125 95.375 C-74.35557359 90.2841026 -70.89538097 88.40245037 -64 87 C-64.04125 85.700625 -64.0825 84.40125 -64.125 83.0625 C-64.14055052 78.16408698 -63.2492718 73.71823189 -62 69 C-63.31484375 68.83564453 -63.31484375 68.83564453 -64.65625 68.66796875 C-72.47049476 67.10694556 -80.24130707 62.38666683 -85 56 C-86.50034602 51.47449979 -86.51664142 48.19766874 -84.625 43.8125 C-78.99578227 37.78119529 -71.73355649 33.77950233 -64 31 C-63.34 31 -62.68 31 -62 31 C-62.33 30.0925 -62.66 29.185 -63 28.25 C-65.09196098 20.8982514 -65.01400973 12.03268936 -62 5 C-60.0625 2.0625 -60.0625 2.0625 -57 0 C-49.84141609 -1.27912001 -43.95453788 -0.05142087 -38 4 C-34.92726213 6.24916706 -31.93850648 8.57845299 -29 11 C-28.56171875 10.63648438 -28.1234375 10.27296875 -27.671875 9.8984375 C-9.86535985 -4.21648304 -9.86535985 -4.21648304 0 0 Z " fill="#83D6F4" transform="translate(265,6)"/>
<path d="M0 0 C0.96292969 -0.00257812 1.92585938 -0.00515625 2.91796875 -0.0078125 C3.91183594 -0.00007813 4.90570313 0.00765625 5.9296875 0.015625 C7.43208984 0.00402344 7.43208984 0.00402344 8.96484375 -0.0078125 C9.92519531 -0.00523438 10.88554687 -0.00265625 11.875 0 C12.74914551 0.00225586 13.62329102 0.00451172 14.52392578 0.00683594 C16.8046875 0.265625 16.8046875 0.265625 19.8046875 2.265625 C18.8146875 4.575625 17.8246875 6.885625 16.8046875 9.265625 C15.8146875 9.265625 14.8246875 9.265625 13.8046875 9.265625 C13.82563477 10.1628125 13.84658203 11.06 13.86816406 11.984375 C13.93676366 15.34662359 13.98669044 18.70811735 14.02441406 22.07080078 C14.04440045 23.51981417 14.07159947 24.96874825 14.10644531 26.41748047 C14.45773757 41.40939401 14.45773757 41.40939401 9.8046875 48.265625 C4.65203815 53.28615514 -0.10125187 54.54620285 -7.1953125 54.515625 C-8.3915625 54.52078125 -9.5878125 54.5259375 -10.8203125 54.53125 C-14.05336224 54.27679701 -16.28948709 53.65249622 -19.1953125 52.265625 C-19.1953125 48.965625 -19.1953125 45.665625 -19.1953125 42.265625 C-18.49535156 42.42417969 -17.79539063 42.58273438 -17.07421875 42.74609375 C-14.05560356 43.29083706 -11.19872798 43.50448101 -8.1328125 43.578125 C-7.11058594 43.61550781 -6.08835938 43.65289062 -5.03515625 43.69140625 C-1.49046069 43.15994571 -0.38560645 42.0379551 1.8046875 39.265625 C2.5919553 37.1274284 2.5919553 37.1274284 2.8046875 35.265625 C1.8146875 35.760625 1.8146875 35.760625 0.8046875 36.265625 C-6.01386376 37.02601189 -10.74109288 36.5199163 -16.1953125 32.265625 C-20.19152003 27.24474887 -20.78616228 23.21100131 -20.5078125 16.84375 C-19.75684978 10.64830759 -16.66315591 7.43009474 -12.109375 3.5625 C-8.215872 0.92445307 -4.66877256 0.01201743 0 0 Z " fill="#F8F9F8" transform="translate(165.1953125,93.734375)"/>
<path d="M0 0 C3.63 0 7.26 0 11 0 C11 17.16 11 34.32 11 52 C2.90806874 53.61838625 -8.01584081 54.9337024 -15.8125 51.375 C-20.11147391 48.17184297 -22.31349116 45.05952652 -24 40 C-24.73079767 33.25509693 -24.26825501 27.46870174 -20 22 C-15.60957547 17.66234499 -11.59946693 16.7090783 -5.5 16.6875 C-2.7775 16.8421875 -2.7775 16.8421875 0 17 C0 11.39 0 5.78 0 0 Z " fill="#FAFBFB" transform="translate(41,77)"/>
<path d="M0 0 C1.04124023 -0.0299707 1.04124023 -0.0299707 2.10351562 -0.06054688 C5.76053933 -0.05707392 7.77983529 0.33525937 10.87109375 2.33984375 C14.33919351 5.86039114 14.05624596 8.12592812 14.03515625 12.9765625 C14.03193359 14.27851562 14.02871094 15.58046875 14.02539062 16.921875 C14.01703466 18.30208399 14.00856971 19.68229232 14 21.0625 C13.99498501 22.45051926 13.9904221 23.83854022 13.98632812 25.2265625 C13.97450976 28.63025132 13.95803434 32.03385439 13.9375 35.4375 C9.45070749 36.70367247 5.13391074 36.6593944 0.5 36.6875 C-0.34626953 36.708125 -1.19253906 36.72875 -2.06445312 36.75 C-6.90088604 36.78029872 -10.1362823 36.5908402 -14.0625 33.4375 C-16.63439679 30.00830428 -16.564642 26.59810514 -16.0625 22.4375 C-12.98261073 17.27123413 -9.94807978 15.52900107 -4.22265625 13.89453125 C-1.78331177 13.37843124 0.45220514 13.19698759 2.9375 13.4375 C2.6075 12.1175 2.2775 10.7975 1.9375 9.4375 C-3.07297725 9.26765331 -6.44888808 9.32842026 -11.0625 11.4375 C-12.0525 11.4375 -13.0425 11.4375 -14.0625 11.4375 C-14.0625 8.7975 -14.0625 6.1575 -14.0625 3.4375 C-9.34338554 0.65329632 -5.38763168 -0.05533515 0 0 Z " fill="#F6F7F6" transform="translate(90.0625,93.5625)"/>
<path d="M0 0 C0.88107422 -0.02449219 1.76214844 -0.04898438 2.66992188 -0.07421875 C8.28172809 -0.09944035 11.70349669 0.48668718 16.0625 4.375 C18.34824855 7.83606727 18.29494693 10.80583797 18.2578125 14.890625 C18.25136719 16.14101562 18.24492187 17.39140625 18.23828125 18.6796875 C18.22152344 19.98164062 18.20476562 21.28359375 18.1875 22.625 C18.17847656 23.94242188 18.16945312 25.25984375 18.16015625 26.6171875 C18.13658609 29.86986916 18.10071525 33.12245744 18.0625 36.375 C14.1025 36.375 10.1425 36.375 6.0625 36.375 C5.5675 23.505 5.5675 23.505 5.0625 10.375 C2.0925 10.045 -0.8775 9.715 -3.9375 9.375 C-3.9375 18.285 -3.9375 27.195 -3.9375 36.375 C-7.5675 36.375 -11.1975 36.375 -14.9375 36.375 C-14.9375 25.155 -14.9375 13.935 -14.9375 2.375 C-9.50124364 0.20049745 -5.72873525 0.00834484 0 0 Z " fill="#F5F6F6" transform="translate(123.9375,93.625)"/>
<path d="M0 0 C0.66 2.64 1.32 5.28 2 8 C1.05125 8.2475 0.1025 8.495 -0.875 8.75 C-3.98250516 9.69986634 -3.98250516 9.69986634 -5.375 11.6875 C-6.67613592 16.50170289 -6.16184413 21.20739298 -5 26 C-2.14581246 26.2339498 0.20342775 26.41921004 3 26 C5.40656544 23.66863973 5.92965604 21.97827183 6.16796875 18.6640625 C6.18549233 16.44207193 6.09939562 14.21983551 6 12 C9.63 12 13.26 12 17 12 C18.87375615 15.74751229 18.53609114 19.91975076 18 24 C16.09360248 28.55247728 13.35966263 32.52952451 9 35 C2.52838426 37.15720525 -5.37838537 37.1300063 -11.625 34.4375 C-16.93551287 28.98723679 -18.26023585 25.52203917 -18.5 17.9375 C-18.33242476 12.48841538 -17.93611995 9.04250157 -14 5 C-9.04356819 0.6336196 -6.60485155 -0.12231207 0 0 Z " fill="#FAFAFA" transform="translate(202,94)"/>
<path d="M0 0 C2.86734897 -0.13654043 5.72830217 -0.22244263 8.59863281 -0.26660156 C9.58863281 -0.32847656 10.57863281 -0.39035156 11.59863281 -0.45410156 C14.60265546 -0.50229444 16.97373147 -0.40404078 19.84863281 0.48339844 C22.56276859 3.15822347 24.15200136 6.10125275 25.84863281 9.48339844 C26.66058955 10.71292404 27.47303714 11.94212573 28.28613281 13.17089844 C30.15360177 17.12993263 29.93689761 18.31088089 28.84863281 22.48339844 C27.67486388 25.02151262 26.2890397 27.40109608 24.84863281 29.79589844 C24.47996094 30.42818359 24.11128906 31.06046875 23.73144531 31.71191406 C21.04315392 36.28887733 21.04315392 36.28887733 19.84863281 37.48339844 C17.82899082 37.55583897 15.80696158 37.56717032 13.78613281 37.54589844 C12.68140625 37.536875 11.57667969 37.52785156 10.43847656 37.51855469 C9.58382812 37.50695312 8.72917969 37.49535156 7.84863281 37.48339844 C7.84863281 34.84339844 7.84863281 32.20339844 7.84863281 29.48339844 C9.10675781 29.09152344 10.36488281 28.69964844 11.66113281 28.29589844 C14.50159409 27.20806221 15.7820747 26.55399038 17.91113281 24.29589844 C19.20413605 20.41688873 19.01303402 17.38373535 17.84863281 13.48339844 C16.51529948 10.81673177 16.51529948 10.81673177 13.84863281 9.48339844 C10.7159835 8.86857941 7.9793152 8.84721699 4.84863281 9.48339844 C0.96155307 12.15576576 0.02117206 13.67379121 -0.96386719 18.29589844 C-1.02574219 19.34777344 -1.08761719 20.39964844 -1.15136719 21.48339844 C-4.45136719 21.48339844 -7.75136719 21.48339844 -11.15136719 21.48339844 C-12.26765377 17.01825212 -11.72641459 16.10760581 -9.49316406 12.30175781 C-9.11224609 11.68107422 -8.73132813 11.06039062 -8.33886719 10.42089844 C-7.96955078 9.79634766 -7.60023438 9.17179687 -7.21972656 8.52832031 C-2.48151768 0.55758114 -2.48151768 0.55758114 0 0 Z " fill="#FAFDFE" transform="translate(227.1513671875,37.5166015625)"/>
<path d="M0 0 C3.63 0 7.26 0 11 0 C11.09992737 4.78306186 11.17195954 9.56549757 11.21972656 14.34936523 C11.23966813 15.97186893 11.26683174 17.59430242 11.30175781 19.21655273 C11.74893594 40.54300395 11.74893594 40.54300395 5.40185547 47.83642578 C3.625 49.3125 3.625 49.3125 0 51 C-3.1875 50.4375 -3.1875 50.4375 -6 49 C-6.78375 48.62875 -7.5675 48.2575 -8.375 47.875 C-9.179375 47.441875 -9.179375 47.441875 -10 47 C-10 46.34 -10 45.68 -10 45 C-9.2575 44.649375 -8.515 44.29875 -7.75 43.9375 C-3.63470148 41.03808513 -2.34653105 37.80374564 -1 33 C-0.38639364 27.3125363 -0.30253455 21.65338099 -0.25 15.9375 C-0.22179468 14.38863916 -0.191861 12.83980878 -0.16015625 11.29101562 C-0.0868332 7.52739908 -0.03693145 3.76414235 0 0 Z " fill="#FAFAFA" transform="translate(59,94)"/>
<path d="M0 0 C0.76441406 -0.03996094 1.52882813 -0.07992188 2.31640625 -0.12109375 C4.4375 0.4375 4.4375 0.4375 6.19921875 2.45703125 C7.75950925 6.21255696 7.80383932 9.57060708 7.6875 13.5625 C7.68234375 14.27792969 7.6771875 14.99335938 7.671875 15.73046875 C7.62478641 18.87951834 7.43912524 21.43262429 6.4375 24.4375 C4.07125296 24.53819136 1.79933758 24.54169872 -0.5625 24.4375 C-1.284375 24.4065625 -2.00625 24.375625 -2.75 24.34375 C-8.1997219 23.66253476 -10.63314957 21.73834142 -14.125 17.5 C-17.5625 12.95017057 -17.5625 12.95017057 -17.5625 9.4375 C-15.734375 7.68359375 -15.734375 7.68359375 -13.3125 5.875 C-12.52359375 5.27558594 -11.7346875 4.67617187 -10.921875 4.05859375 C-7.23528463 1.52558878 -4.51812984 0.12996313 0 0 Z " fill="#FBFDFE" transform="translate(258.5625,10.5625)"/>
<path d="M0 0 C1.25009462 3.91289781 1.25687554 7.86949799 1.3125 11.9375 C1.34150391 12.64068359 1.37050781 13.34386719 1.40039062 14.06835938 C1.44372877 17.62542063 1.07198763 19.86850715 -0.64453125 23.00390625 C-3 25 -3 25 -5.8984375 25.484375 C-9.33240917 24.94808723 -11.61022498 23.96544945 -14.625 22.25 C-15.54539063 21.73953125 -16.46578125 21.2290625 -17.4140625 20.703125 C-20.02703366 18.98219535 -22.06882588 17.46813473 -24 15 C-23.90983917 10.47392634 -20.35342365 7.17574007 -17.4609375 3.99609375 C-12.37348116 -0.13039861 -6.30063103 0 0 0 Z " fill="#FCFEFE" transform="translate(265,77)"/>
<path d="M0 0 C7.42902958 2.11520981 14.84288374 4.97821754 20 11 C20.64983394 14.73654513 20.43681491 16.3759787 18.25 19.5 C13.59323186 23.63187231 6.26155065 28 0 28 C-5.87562728 15.78941302 -5.87562728 15.78941302 -3.9375 9.5 C-3.33012092 7.98402132 -2.6882131 6.48103458 -2 5 C-1.4121875 3.453125 -1.4121875 3.453125 -0.8125 1.875 C-0.544375 1.25625 -0.27625 0.6375 0 0 Z " fill="#FCFEFE" transform="translate(268,42)"/>
<path d="M0 0 C6.15239564 1.3959217 11.39355578 5.76149336 16.32421875 9.52734375 C15.37667884 15.13575562 11.6284637 19.03612285 7.32421875 22.52734375 C2.35123122 24.32885301 -2.42710693 24.52734375 -7.67578125 24.52734375 C-9.3650399 21.14882646 -8.90254411 17.36447729 -8.92578125 13.65234375 C-8.94640625 12.83636719 -8.96703125 12.02039062 -8.98828125 11.1796875 C-9.01140365 7.63617983 -9.01310002 5.18771404 -7.3828125 1.99609375 C-5.06805737 0.00445089 -2.99482592 -0.13839306 0 0 Z " fill="#FDFEFE" transform="translate(215.67578125,10.47265625)"/>
<path d="M0 0 C12.93363229 0.22152466 12.93363229 0.22152466 18 4.58203125 C20.18259984 7.3067833 22.16742102 10.03012946 24 13 C22.49322669 17.02103409 20.13434234 18.5593458 16.5625 20.8125 C15.59441406 21.43769531 14.62632812 22.06289062 13.62890625 22.70703125 C11 24 11 24 8 23 C7.38125 22.360625 6.7625 21.72125 6.125 21.0625 C3.83092823 18.83590093 1.96462474 18.09094277 -1 17 C-1.02691685 14.54159395 -1.04679802 12.08348118 -1.0625 9.625 C-1.07087891 8.92632812 -1.07925781 8.22765625 -1.08789062 7.5078125 C-1.11328125 2.2265625 -1.11328125 2.2265625 0 0 Z " fill="#1D3D2F" transform="translate(208,77)"/>
<path d="M0 0 C3.00115208 2.00076805 4.46981125 3.47217799 5.66015625 6.90234375 C6.44514657 10.87302295 6.16442943 12.67114113 4.3125 16.375 C1.23262188 19.87107787 -0.3367604 20.82305962 -4.9375 21.3125 C-8.43355571 20.95575962 -10.20520785 20.09609412 -13 18 C-15.6790573 13.98141405 -15.69610694 10.72358279 -15 6 C-11.13603811 -0.18233902 -6.96160688 -1.03402106 0 0 Z " fill="#82D6F6" transform="translate(241,46)"/>
<path d="M0 0 C0.6789678 1.70348171 1.34261957 3.41307179 2 5.125 C2.37125 6.07632813 2.7425 7.02765625 3.125 8.0078125 C4 11 4 11 4 17 C-3.92 17 -11.84 17 -20 17 C-20.33 15.35 -20.66 13.7 -21 12 C-16.40947341 6.07673989 -7.71192181 0 0 0 Z " fill="#FBFDFE" transform="translate(205,42)"/>
<path d="M0 0 C3.5625 0.625 3.5625 0.625 6 2.6875 C7.94951789 6.35259364 8.07551543 8.52087659 7.5625 12.625 C6.40610194 14.93779611 5.38840172 16.79909828 3.5625 18.625 C-1.79424677 19.09080407 -1.79424677 19.09080407 -4.25 17.3125 C-6.85976596 13.60388521 -6.73981212 10.0085257 -6.4375 5.625 C-4.95588488 1.52876996 -4.34455536 0.78991916 0 0 Z " fill="#204032" transform="translate(201.4375,102.375)"/>
<path d="M0 0 C0 5.94 0 11.88 0 18 C-7 18 -7 18 -9.9375 16.625 C-12.67189762 13.14485757 -12.65953123 10.68685068 -12.41015625 6.3515625 C-12 4 -12 4 -10.5 1.375 C-8 0 -8 0 0 0 Z " fill="#1A3C2E" transform="translate(41,103)"/>
<path d="M0 0 C0 5.94 0 11.88 0 18 C-7 18 -7 18 -9.4375 16.625 C-11.86489633 12.54697416 -11.88178639 8.61596004 -11 4 C-7.41047585 -0.43411806 -5.95769997 0 0 0 Z " fill="#1C3D2F" transform="translate(168,103)"/>
<path d="M0 0 C2.97 0 5.94 0 9 0 C9.3403125 1.175625 9.3403125 1.175625 9.6875 2.375 C10.77083333 5.19791667 10.77083333 5.19791667 13.5 6.25 C14.325 6.4975 15.15 6.745 16 7 C16.66 7.33 17.32 7.66 18 8 C18 10.64 18 13.28 18 16 C14.78134389 16.72255545 12.19134598 16.9219444 9 16 C4.76802787 11.38762588 2.19888101 5.81056963 0 0 Z " fill="#214235" transform="translate(217,59)"/>
<path d="M0 0 C7.26 0 14.52 0 22 0 C21.01 3.3 20.02 6.6 19 10 C15.3845309 11.20515637 14.16788155 10.42056296 10.85742188 8.79492188 C10.22384766 8.47072266 9.59027344 8.14652344 8.9375 7.8125 C7.98133789 7.35520508 7.98133789 7.35520508 7.00585938 6.88867188 C3.07745511 4.91412094 2.04355797 4.08711593 0 0 Z " fill="#264538" transform="translate(186,59)"/>
<path d="M0 0 C3.63 0 7.26 0 11 0 C11 3.96 11 7.92 11 12 C7.37 12 3.74 12 0 12 C0 8.04 0 4.08 0 0 Z " fill="#F4F5F5" transform="translate(59,77)"/>
<path d="M0 0 C0 2.31 0 4.62 0 7 C-2.97 7 -5.94 7 -9 7 C-9.33 5.68 -9.66 4.36 -10 3 C-6.68152292 -0.06320961 -4.44849969 -0.3033068 0 0 Z " fill="#204032" transform="translate(94,115)"/>
<path d="M0 0 C4.83256305 0.41421969 6.82679218 2.46413986 10 6 C9.67 6.66 9.34 7.32 9 8 C5.625 7.75 5.625 7.75 2 7 C0.05758039 4.4664092 0 3.21812786 0 0 Z " fill="#F1F4F5" transform="translate(207,94)"/>
<path d="M0 0 C0.66 0 1.32 0 2 0 C2.66 2.97 3.32 5.94 4 9 C-0.455 9.495 -0.455 9.495 -5 10 C-3.35 6.7 -1.7 3.4 0 0 Z " fill="#F5FBFE" transform="translate(259,63)"/>
<path d="M0 0 C2.97 0.33 5.94 0.66 9 1 C8.34 3.97 7.68 6.94 7 10 C6.34 10 5.68 10 5 10 C3.35 6.7 1.7 3.4 0 0 Z " fill="#F5FBFE" transform="translate(254,39)"/>
<path d="M0 0 C-1.98 2.97 -3.96 5.94 -6 9 C-8.76223278 6.23776722 -8.57856291 3.79293383 -9 0 C-5.32431536 -0.91892116 -3.83619425 -0.95904856 0 0 Z " fill="#F7FCFE" transform="translate(219,40)"/>
<path d="M0 0 C2.61724095 2.36797991 4.32861729 4.89600354 6 8 C6 8.66 6 9.32 6 10 C3.36 9.67 0.72 9.34 -2 9 C-1.125 2.25 -1.125 2.25 0 0 Z " fill="#1F4133" transform="translate(212,63)"/>
<path d="M0 0 C4.875 4.75 4.875 4.75 6 7 C2.37 7 -1.26 7 -5 7 C-3.38262276 3.76524552 -2.52370777 2.29427979 0 0 Z " fill="#F8FCFE" transform="translate(236,25)"/>
<path d="M0 0 C2.31 0 4.62 0 7 0 C5.60667426 3.36720387 4.0210714 4.9859524 1 7 C0 6 0 6 -0.0625 2.9375 C-0.041875 1.968125 -0.02125 0.99875 0 0 Z " fill="#F8FCFD" transform="translate(235,80)"/>
</svg>
