<?xml version="1.0" standalone="no"?>
<!DOCTYPE svg PUBLIC "-//W3C//DTD SVG 20010904//EN"
 "http://www.w3.org/TR/2001/REC-SVG-20010904/DTD/svg10.dtd">
<svg version="1.0" xmlns="http://www.w3.org/2000/svg"
 width="550.000000pt" height="340.000000pt" viewBox="0 0 550.000000 340.000000"
 preserveAspectRatio="xMidYMid meet">

<g transform="translate(0.000000,340.000000) scale(0.100000,-0.100000)"
fill="#000000" stroke="none">
<path d="M1310 3073 l0 -148 -98 0 c-86 0 -103 -3 -154 -28 -115 -57 -172
-156 -171 -302 0 -156 73 -253 218 -291 91 -25 398 -10 396 19 -1 4 -1 207 -1
452 l0 445 -95 0 -95 0 0 -147z m-2 -465 l2 -156 -31 -7 c-17 -4 -47 -4 -67 0
-87 16 -126 66 -126 160 1 113 53 167 159 163 l60 -3 3 -157z"/>
<path d="M1620 3120 l0 -100 100 0 100 0 0 100 0 100 -100 0 -100 0 0 -100z"/>
<path d="M2085 2923 c-11 -2 -48 -13 -82 -24 l-63 -21 0 -74 c0 -41 1 -74 3
-74 1 0 30 10 62 21 74 27 198 37 220 19 8 -7 15 -27 15 -44 l0 -33 -98 -17
c-181 -31 -248 -94 -240 -223 5 -77 26 -109 94 -143 46 -23 57 -25 184 -23 74
2 158 6 185 11 l50 7 3 225 c3 261 -5 317 -49 354 -16 14 -46 30 -67 36 -36
10 -177 12 -217 3z m165 -427 c0 -72 -4 -76 -92 -76 -49 0 -88 24 -88 54 0 44
68 82 153 85 27 1 27 0 27 -63z"/>
<path d="M2617 2911 c-48 -10 -92 -22 -98 -28 -6 -6 -8 -119 -7 -299 l3 -289
98 -3 97 -3 0 235 c0 265 -7 246 90 246 51 0 61 -3 79 -26 20 -25 21 -39 21
-241 l0 -214 98 3 97 3 0 225 c0 124 -4 242 -8 262 -10 47 -48 93 -101 120
-58 30 -244 35 -369 9z"/>
<path d="M3485 2923 c-150 -21 -277 -113 -310 -226 -46 -156 9 -318 129 -379
51 -26 168 -36 220 -18 21 6 40 10 43 7 3 -3 2 -24 -2 -47 -20 -119 -156 -160
-334 -99 -30 11 -56 19 -58 19 -2 0 -2 -39 -1 -87 l3 -88 40 -15 c27 -10 81
-14 170 -15 128 0 132 1 197 33 77 38 119 82 150 162 21 52 23 72 24 325 2
260 3 270 21 268 14 -2 27 14 51 63 18 35 32 68 32 73 0 20 -273 38 -375 24z
m83 -310 l-3 -158 -58 -3 c-67 -3 -97 11 -127 61 -26 42 -27 130 -2 177 23 44
90 80 149 80 l44 0 -3 -157z"/>
<path d="M4049 2917 c-143 -53 -205 -162 -197 -341 3 -73 9 -101 30 -141 53
-102 129 -147 263 -153 153 -7 247 44 306 164 29 59 33 76 33 153 1 47 -5 106
-12 131 -20 67 -71 131 -133 165 -48 26 -65 30 -154 32 -66 2 -112 -1 -136
-10z m159 -148 c90 -31 111 -229 32 -304 -55 -52 -146 -31 -176 40 -18 44 -18
156 0 200 15 35 67 75 97 75 9 0 30 -5 47 -11z"/>
<path d="M1618 2613 l-3 -308 -27 -57 c-19 -42 -39 -66 -73 -90 -26 -18 -54
-38 -62 -44 -12 -8 2 -19 72 -52 l88 -42 42 24 c52 31 102 87 126 142 30 68
39 164 39 457 l0 277 -99 0 -99 0 -4 -307z"/>
<path d="M2670 1740 l0 -50 -45 0 c-25 0 -45 -4 -45 -10 0 -5 20 -10 45 -10
l45 0 0 -45 c0 -25 5 -45 10 -45 6 0 10 20 10 45 l0 45 45 0 c25 0 45 5 45 10
0 6 -20 10 -45 10 l-45 0 0 50 c0 28 -4 50 -10 50 -5 0 -10 -22 -10 -50z"/>
</g>
</svg>
